<?xml version="1.0" standalone="no"?>
<!DOCTYPE svg PUBLIC "-//W3C//DTD SVG 20010904//EN"
 "http://www.w3.org/TR/2001/REC-SVG-20010904/DTD/svg10.dtd">
<svg version="1.0" xmlns="http://www.w3.org/2000/svg"
 width="1584.000000pt" height="1584.000000pt" viewBox="0 0 1584.000000 1584.000000"
 preserveAspectRatio="xMidYMid meet">
<metadata>
Created by potrace 1.14, written by Peter Selinger 2001-2017
</metadata>
<g transform="translate(0.000000,1584.000000) scale(0.100000,-0.100000)"
fill="#000000" stroke="none">
<path d="M7510 15376 c-3 -2 -18 -7 -35 -9 -16 -3 -40 -8 -52 -11 -68 -17 -89
-22 -131 -30 -12 -3 -26 -7 -31 -10 -5 -4 -11 0 -14 6 -3 10 -7 10 -18 1 -8
-6 -26 -14 -39 -17 -14 -3 -38 -9 -55 -12 -16 -4 -36 -12 -44 -18 -12 -8 -13
-8 -7 2 5 9 -6 6 -30 -6 -22 -11 -42 -20 -47 -21 -4 0 -23 -8 -43 -16 -35 -14
-99 -34 -156 -48 -7 -2 -38 -12 -68 -22 -30 -11 -58 -18 -62 -17 -10 2 -152
-141 -165 -168 -13 -26 -35 -83 -34 -87 1 -2 -7 -12 -16 -22 -28 -31 -36 -41
-93 -131 -74 -115 -77 -119 -101 -167 -11 -23 -27 -47 -35 -54 -8 -6 -14 -16
-14 -21 0 -5 -9 -18 -20 -30 -11 -12 -20 -28 -20 -35 0 -7 -4 -13 -9 -13 -8 0
-24 -37 -22 -52 1 -5 -4 -8 -10 -8 -6 0 -9 -7 -5 -15 3 -8 2 -15 -3 -15 -8 0
-59 -109 -65 -140 -2 -8 -6 -22 -9 -30 -20 -46 -35 -99 -30 -104 4 -3 1 -6 -5
-6 -7 0 -12 -11 -12 -25 0 -14 -4 -25 -8 -25 -5 0 -9 -6 -9 -12 0 -7 -3 -24
-6 -38 -3 -14 -9 -36 -12 -50 -3 -14 -8 -40 -11 -59 -12 -72 -10 -70 -195
-131 -310 -103 -550 -201 -834 -341 -308 -152 -436 -225 -715 -407 -527 -344
-1019 -779 -1421 -1257 -19 -22 -37 -42 -40 -45 -13 -11 -161 -203 -241 -310
-90 -122 -239 -343 -304 -450 -21 -36 -45 -74 -51 -85 -7 -11 -16 -28 -19 -37
-3 -10 -10 -18 -14 -18 -4 0 -10 -8 -13 -17 -4 -10 -27 -54 -52 -98 -44 -77
-255 -498 -255 -509 0 -3 -12 -31 -26 -63 -14 -32 -30 -67 -35 -78 -69 -157
-258 -707 -283 -825 -3 -14 -14 -59 -25 -100 -10 -41 -22 -88 -25 -103 l-7
-29 -24 26 c-13 14 -35 26 -48 26 -46 0 -62 -35 -96 -210 -17 -91 -34 -180
-36 -198 -2 -18 -6 -45 -9 -60 -11 -53 -29 -186 -41 -302 -3 -30 -8 -66 -10
-80 -8 -47 -33 -429 -34 -536 -1 -25 -7 -33 -39 -47 -72 -31 -75 -48 -68 -306
3 -124 8 -237 10 -251 2 -14 7 -69 11 -122 3 -53 7 -105 9 -115 2 -10 7 -52
11 -93 3 -41 8 -87 11 -102 2 -16 6 -40 8 -55 3 -16 8 -53 11 -83 4 -30 9 -64
11 -75 2 -11 11 -60 20 -110 8 -49 22 -121 30 -160 9 -38 18 -81 20 -95 19
-96 91 -373 134 -515 178 -585 426 -1131 753 -1655 50 -80 104 -163 119 -185
16 -22 56 -78 88 -125 32 -47 63 -89 67 -95 5 -5 20 -26 33 -45 13 -19 29 -40
35 -47 5 -6 21 -26 35 -44 230 -304 598 -697 895 -954 38 -33 87 -76 109 -96
23 -20 100 -83 172 -140 750 -595 1632 -1030 2564 -1264 150 -38 397 -90 520
-109 40 -7 162 -25 195 -30 17 -2 46 -6 65 -10 19 -3 59 -8 88 -11 28 -3 73
-7 100 -10 237 -24 371 -30 687 -30 262 0 491 7 605 20 19 2 67 6 105 10 137
14 284 32 330 42 11 2 36 6 55 8 19 3 46 7 60 10 14 3 39 8 55 11 106 18 254
48 362 74 69 17 128 29 130 27 7 -8 -298 -80 -433 -103 -16 -2 -63 -11 -104
-19 -72 -14 -231 -38 -335 -50 -27 -4 -61 -8 -75 -11 -14 -2 -61 -6 -105 -10
-44 -3 -91 -7 -105 -10 -160 -26 -956 -26 -1180 1 -19 2 -63 6 -97 9 -133 11
-335 39 -486 66 -34 7 -71 13 -82 15 -11 2 -31 6 -45 9 -14 4 -38 9 -55 12
-112 20 -283 61 -520 124 -264 70 -678 223 -981 360 -85 39 -405 199 -419 210
-5 4 -43 25 -83 46 -41 22 -81 44 -90 49 -10 6 -51 30 -92 54 -119 70 -374
239 -514 341 -114 83 -322 243 -336 259 -3 3 -26 23 -52 44 -26 21 -53 43 -60
50 -7 7 -49 43 -93 82 -180 156 -555 544 -730 756 -216 260 -493 656 -638 910
-124 218 -162 290 -248 466 -55 110 -99 204 -99 208 0 4 -14 36 -30 72 -84
181 -239 616 -305 851 -30 110 -85 326 -91 362 -3 14 -9 41 -14 60 -13 52 -59
285 -66 339 -8 60 -19 79 -49 87 -32 8 -63 -3 -76 -27 -10 -20 -9 -30 17 -189
3 -19 19 -98 36 -175 16 -77 32 -150 34 -163 2 -12 18 -75 35 -140 17 -64 32
-124 34 -132 41 -177 234 -723 332 -938 107 -237 191 -409 273 -557 18 -33 44
-80 57 -104 46 -84 177 -296 240 -390 35 -51 63 -95 63 -97 0 -2 27 -41 60
-86 33 -46 68 -94 78 -107 42 -59 216 -286 222 -291 4 -3 42 -48 86 -100 271
-328 718 -758 1039 -1000 33 -25 62 -47 65 -50 3 -3 39 -30 80 -60 41 -30 77
-57 80 -60 5 -5 60 -43 190 -131 313 -213 742 -449 1095 -603 72 -32 144 -64
162 -72 17 -8 37 -14 45 -14 8 0 18 -4 24 -9 12 -12 310 -120 459 -166 66 -20
140 -44 164 -51 84 -28 428 -113 576 -143 176 -35 396 -71 530 -87 33 -3 69
-8 80 -10 11 -2 54 -6 95 -10 41 -3 86 -7 100 -9 74 -12 301 -19 590 -20 386
0 486 6 830 46 166 19 206 24 270 35 19 4 49 8 65 11 17 2 100 18 185 34 85
17 166 33 180 35 14 2 79 18 145 34 66 17 128 32 138 35 85 20 276 78 437 132
720 241 1370 581 1980 1037 74 55 140 105 147 111 33 28 50 42 116 95 40 32
86 70 102 85 17 14 57 49 89 78 143 125 326 305 491 482 88 94 139 152 269
305 357 421 770 1085 998 1605 22 49 46 104 53 120 67 145 231 604 289 812 37
132 85 316 102 398 9 39 17 77 19 85 12 52 36 178 50 255 8 50 17 99 19 110 2
11 7 45 11 75 4 30 9 63 11 74 2 10 6 42 8 70 3 28 7 67 10 86 7 48 17 144 22
205 2 28 7 91 10 140 16 194 7 945 -11 1045 -1 8 -6 47 -9 85 -15 156 -38 329
-47 354 -6 14 -16 29 -22 33 -22 14 -64 8 -82 -12 -18 -20 -18 -36 0 -180 18
-143 32 -286 43 -435 9 -130 9 -761 -1 -891 -12 -161 -30 -340 -42 -424 -3
-19 -8 -55 -10 -80 -27 -233 -117 -651 -211 -980 -29 -99 -149 -460 -168 -505
-8 -16 -30 -70 -49 -120 -77 -198 -232 -529 -341 -730 -60 -110 -158 -279
-172 -295 -6 -8 -20 -31 -31 -50 -64 -120 -291 -444 -462 -660 -81 -102 -135
-167 -266 -316 -82 -95 -442 -456 -523 -526 -37 -32 -87 -76 -112 -98 -24 -21
-46 -37 -49 -34 -3 3 0 8 6 12 14 9 128 109 207 182 104 97 392 392 477 490
45 52 94 109 108 125 15 17 57 68 94 115 37 47 80 101 95 120 143 178 358 501
524 790 353 614 627 1355 764 2065 2 11 6 31 9 45 2 14 7 39 9 55 3 17 12 69
20 117 8 47 18 115 22 150 3 34 8 65 9 68 2 3 7 42 10 85 4 44 9 89 11 100 2
10 6 62 10 115 3 52 8 111 10 130 2 19 6 131 10 247 7 237 4 254 -51 292 -48
33 -109 25 -147 -19 l-28 -30 -1 102 c0 57 -2 126 -4 153 -7 129 -16 265 -20
286 -2 13 -6 60 -10 104 -4 44 -8 87 -10 95 -2 8 -8 58 -15 110 -7 52 -13 102
-15 110 -1 8 -6 35 -10 60 -3 25 -17 97 -30 160 -13 63 -26 126 -28 140 -6 28
-6 31 -42 185 -136 580 -401 1237 -715 1770 -71 121 -298 471 -344 530 -8 11
-64 83 -122 160 -272 356 -669 772 -974 1021 -19 16 -37 31 -40 34 -14 16
-167 136 -260 204 -58 43 -113 84 -122 91 -74 60 -398 266 -593 377 -133 76
-534 278 -552 278 -4 0 -21 7 -38 16 -103 55 -558 223 -756 279 l-95 27 -1 81
c0 90 -14 225 -23 235 -3 3 -3 3 -19 77 -7 33 -17 62 -22 65 -5 3 -10 15 -12
25 -2 11 -10 36 -19 55 -9 19 -26 59 -39 88 -12 28 -26 52 -31 52 -4 0 -7 3
-6 8 1 4 -9 25 -23 47 -56 87 -63 100 -60 110 1 6 0 7 -4 3 -4 -3 -37 28 -73
70 -36 42 -77 86 -91 97 -13 11 -33 28 -43 38 -10 9 -20 17 -23 17 -3 0 -31
20 -62 43 -66 50 -152 89 -238 107 -33 8 -65 17 -72 22 -7 5 -13 4 -16 -4 -4
-10 -7 -10 -15 1 -5 7 -12 9 -15 4 -3 -5 -26 -8 -51 -6 -25 1 -48 -2 -51 -7
-4 -7 -13 -7 -24 0 -10 5 -22 6 -26 2 -3 -4 -11 -8 -16 -8 -5 -1 -10 -2 -11
-4 -2 -1 -12 -3 -23 -5 -11 -1 -34 -5 -50 -9 -26 -5 -37 1 -71 32 -59 54 -86
75 -117 91 -15 8 -27 18 -27 23 0 4 -5 8 -10 8 -6 0 -45 21 -88 48 -74 45
-133 73 -159 75 -7 0 -13 4 -13 8 0 5 -14 12 -50 23 -3 1 -11 5 -17 9 -7 5
-21 10 -30 12 -10 2 -47 15 -84 28 -53 20 -86 25 -175 26 -60 1 -112 0 -114
-3z m4716 -13162 c-11 -7 -38 -29 -60 -48 -87 -72 -186 -147 -185 -139 1 11
253 211 259 206 3 -3 -4 -11 -14 -19z m-261 -203 c-3 -6 -56 -46 -118 -90 -61
-45 -116 -84 -122 -89 -32 -26 -167 -113 -171 -110 -2 3 29 26 69 52 39 26 86
57 102 69 17 12 71 51 120 87 50 35 96 70 103 77 16 15 26 17 17 4z m-426
-304 c-17 -14 -232 -144 -309 -187 -52 -30 -121 -69 -154 -87 -32 -19 -60 -32
-63 -30 -2 3 36 26 84 52 105 57 294 169 378 223 33 22 62 37 64 36 2 -2 2 -5
0 -7z m-539 -312 c0 -5 -167 -91 -208 -106 -47 -18 -19 -2 93 55 120 60 115
58 115 51z m-345 -170 c-151 -72 -425 -181 -640 -255 -198 -67 -485 -151 -485
-141 0 4 42 17 93 30 254 65 779 256 1022 372 55 26 105 47 110 47 6 0 -39
-23 -100 -53z"/>
<path d="M10720 13963 c-85 -27 -128 -79 -137 -162 -9 -82 45 -165 122 -191
77 -25 178 13 220 82 30 51 27 143 -7 195 -40 61 -134 97 -198 76z"/>
<path d="M11172 13590 c-12 -12 -22 -30 -22 -41 0 -25 17 -59 30 -59 9 0 280
-154 375 -213 134 -83 472 -313 495 -337 3 -3 34 -27 70 -54 206 -157 433
-357 635 -560 140 -141 176 -179 295 -312 353 -394 748 -989 964 -1451 10 -23
30 -47 43 -54 33 -18 75 -1 88 34 8 25 1 46 -67 180 -350 690 -855 1360 -1403
1860 -179 163 -187 170 -250 222 -33 28 -62 52 -65 55 -3 3 -45 37 -95 76
-301 237 -653 469 -968 638 -78 42 -95 44 -125 16z"/>
<path d="M2720 12651 c-117 -38 -189 -142 -177 -255 9 -89 55 -159 130 -197
156 -81 346 29 353 204 1 32 -2 73 -8 90 -16 48 -75 115 -121 139 -45 22 -136
32 -177 19z m150 -59 c88 -37 133 -147 100 -246 -12 -38 -73 -100 -113 -115
-101 -38 -228 21 -257 119 -25 87 2 175 68 222 65 45 127 52 202 20z"/>
<path d="M2720 12533 c-92 -56 -90 -188 4 -236 87 -45 196 21 196 119 0 37
-28 90 -57 110 -35 22 -112 27 -143 7z"/>
<path d="M2393 12068 c-139 -149 -520 -679 -651 -905 -20 -36 -46 -79 -56 -96
-81 -136 -336 -630 -336 -652 0 -2 -12 -30 -26 -62 -14 -32 -30 -67 -34 -78
-4 -11 -18 -42 -29 -68 -74 -166 -241 -657 -241 -707 0 -20 7 -33 22 -42 57
-31 91 -10 114 70 48 170 197 580 269 737 111 246 146 319 202 425 76 144 186
341 241 429 20 33 55 88 76 123 109 175 323 469 483 665 91 111 103 148 61
177 -34 24 -61 19 -95 -16z"/>
<path d="M14250 10259 c-97 -44 -145 -117 -144 -224 0 -101 42 -172 129 -218
56 -30 164 -30 221 0 111 59 162 197 114 308 -41 96 -114 147 -215 151 -44 2
-73 -3 -105 -17z m172 -43 c127 -57 159 -222 62 -320 -98 -97 -266 -66 -319
60 -40 95 -3 202 86 252 43 24 127 28 171 8z"/>
<path d="M14300 10162 c-60 -28 -89 -72 -86 -132 4 -102 106 -160 195 -112 64
34 89 128 51 189 -30 46 -116 76 -160 55z"/>
<path d="M889 9240 c-99 -30 -154 -147 -114 -243 33 -79 108 -124 192 -113
153 18 217 202 108 311 -50 49 -118 66 -186 45z"/>
</g>
</svg>
