<?xml version="1.0" encoding="utf-8"?>
<!-- Generator: Adobe Illustrator 27.5.0, SVG Export Plug-In . SVG Version: 6.00 Build 0)  -->
<svg version="1.1" id="Ñëîé_1" xmlns="http://www.w3.org/2000/svg" xmlns:xlink="http://www.w3.org/1999/xlink" x="0px" y="0px"
	 viewBox="0 0 600 450" style="enable-background:new 0 0 600 450;" xml:space="preserve">
<radialGradient id="SVGID_1_" cx="380.0082" cy="175.0036" r="535.7635" fx="849.8658" fy="-82.4384" gradientUnits="userSpaceOnUse">
	<stop  offset="0" style="stop-color:#2B237C"/>
	<stop  offset="1" style="stop-color:#180D5B"/>
</radialGradient>
<rect style="fill:url(#SVGID_1_);" width="600" height="450"/>
<g>
	<g>
		<path style="fill:#42E8E0;" d="M290.091,263.01c-0.631,0-1.319-0.204-2.022-0.609l-12.948-7.476
			c-0.253-0.146-0.339-0.47-0.193-0.723c0.146-0.252,0.47-0.339,0.722-0.193l12.948,7.476c0.879,0.508,1.68,0.607,2.253,0.275
			c0.573-0.33,0.888-1.072,0.888-2.089v-3.122c0-1.41,0.503-2.478,1.417-3.004c0.913-0.528,2.088-0.43,3.309,0.276l2.705,1.56
			c0.252,0.146,0.339,0.47,0.193,0.722c-0.145,0.254-0.467,0.342-0.722,0.194l-2.705-1.56c-0.88-0.51-1.68-0.608-2.253-0.276
			c-0.572,0.33-0.888,1.072-0.888,2.089v3.122c0,1.41-0.503,2.477-1.416,3.004C290.991,262.899,290.556,263.01,290.091,263.01z"/>
		<path style="fill:#42E8E0;" d="M285.055,265.907c-0.631,0-1.319-0.205-2.022-0.611l-12.947-7.474
			c-0.253-0.147-0.339-0.47-0.193-0.722c0.146-0.254,0.469-0.339,0.722-0.194l12.947,7.475c0.88,0.511,1.68,0.608,2.253,0.276
			c0.573-0.331,0.888-1.072,0.888-2.089v-3.123c0-1.409,0.503-2.476,1.416-3.003c0.914-0.528,2.089-0.429,3.31,0.274l2.704,1.562
			c0.253,0.146,0.339,0.47,0.193,0.723c-0.146,0.252-0.47,0.339-0.722,0.193l-2.704-1.562c-0.882-0.509-1.68-0.606-2.253-0.275
			c-0.572,0.33-0.888,1.072-0.888,2.088v3.123c0,1.41-0.503,2.477-1.417,3.004C285.955,265.796,285.52,265.907,285.055,265.907z"/>
		<path style="fill:#42E8E0;" d="M280.019,268.804c-0.631,0-1.319-0.204-2.022-0.609l-12.948-7.476
			c-0.253-0.146-0.339-0.47-0.193-0.723c0.146-0.253,0.469-0.338,0.722-0.193l12.948,7.476c0.881,0.51,1.68,0.607,2.253,0.275
			c0.572-0.33,0.888-1.072,0.888-2.089v-3.122c0-1.41,0.503-2.477,1.417-3.004c0.913-0.526,2.088-0.429,3.31,0.276l2.704,1.559
			c0.252,0.147,0.339,0.47,0.193,0.722c-0.145,0.254-0.469,0.34-0.722,0.194l-2.704-1.561c-0.88-0.51-1.681-0.608-2.253-0.276
			c-0.573,0.33-0.888,1.072-0.888,2.089v3.122c0,1.41-0.503,2.477-1.416,3.004C280.919,268.693,280.484,268.804,280.019,268.804z"/>
		<path style="fill:#42E8E0;" d="M274.983,271.701c-0.631,0-1.319-0.205-2.022-0.611l-12.948-7.474
			c-0.253-0.146-0.339-0.47-0.193-0.722c0.146-0.253,0.469-0.34,0.722-0.194l12.948,7.475c0.881,0.51,1.68,0.608,2.253,0.276
			c0.573-0.331,0.888-1.072,0.888-2.089v-3.123c0-1.409,0.503-2.477,1.416-3.003c0.914-0.528,2.089-0.43,3.31,0.274l2.704,1.562
			c0.253,0.146,0.339,0.47,0.193,0.723c-0.146,0.252-0.469,0.339-0.722,0.193l-2.705-1.561c-0.879-0.508-1.681-0.606-2.253-0.275
			c-0.572,0.33-0.888,1.071-0.888,2.088v3.123c0,1.41-0.503,2.477-1.417,3.004C275.883,271.59,275.448,271.701,274.983,271.701z"/>
		<path style="fill:#42E8E0;" d="M269.947,274.598c-0.631,0-1.319-0.204-2.022-0.609l-12.947-7.476
			c-0.253-0.146-0.339-0.47-0.193-0.723c0.146-0.252,0.471-0.338,0.722-0.193l12.947,7.476c0.88,0.509,1.681,0.607,2.253,0.275
			c0.573-0.33,0.888-1.072,0.888-2.089v-3.122c0-1.41,0.503-2.477,1.416-3.004c0.914-0.526,2.089-0.429,3.31,0.276l2.704,1.56
			c0.253,0.147,0.339,0.47,0.193,0.722c-0.146,0.253-0.468,0.34-0.722,0.194l-2.704-1.561c-0.88-0.51-1.682-0.608-2.253-0.276
			c-0.573,0.33-0.888,1.072-0.888,2.089v3.122c0,1.41-0.503,2.477-1.416,3.004C270.847,274.487,270.412,274.598,269.947,274.598z"/>
		<path style="fill:#42E8E0;" d="M264.911,277.494c-0.631,0-1.319-0.204-2.022-0.609l-12.948-7.476
			c-0.253-0.146-0.339-0.47-0.193-0.723c0.146-0.252,0.471-0.338,0.722-0.193l12.948,7.476c0.879,0.508,1.681,0.606,2.253,0.275
			c0.572-0.33,0.888-1.071,0.888-2.088v-3.123c0-1.409,0.503-2.475,1.416-3.003c0.915-0.528,2.089-0.429,3.31,0.274l2.704,1.562
			c0.253,0.146,0.339,0.47,0.193,0.723c-0.146,0.252-0.471,0.338-0.722,0.193l-2.704-1.562c-0.882-0.509-1.68-0.607-2.254-0.275
			c-0.572,0.33-0.888,1.072-0.888,2.088v3.123c0,1.409-0.503,2.477-1.416,3.003C265.811,277.384,265.376,277.494,264.911,277.494z"
			/>
		<path style="fill:#42E8E0;" d="M259.875,280.391c-0.631,0-1.319-0.204-2.022-0.609l-12.948-7.476
			c-0.253-0.146-0.339-0.47-0.193-0.723c0.146-0.252,0.471-0.339,0.722-0.193l12.948,7.476c0.879,0.509,1.68,0.607,2.253,0.275
			c0.573-0.33,0.888-1.072,0.888-2.089v-3.122c0-1.41,0.503-2.477,1.416-3.004c0.914-0.528,2.09-0.43,3.309,0.274l2.705,1.562
			c0.253,0.146,0.339,0.47,0.193,0.723c-0.146,0.252-0.47,0.339-0.722,0.193l-2.705-1.562c-0.88-0.508-1.68-0.606-2.253-0.275
			c-0.572,0.33-0.888,1.072-0.888,2.089v3.122c0,1.41-0.503,2.477-1.416,3.004C260.775,280.281,260.34,280.391,259.875,280.391z"/>
		<path style="fill:#42E8E0;" d="M254.839,283.288c-0.631,0.001-1.319-0.204-2.022-0.609l-12.947-7.476
			c-0.253-0.147-0.339-0.47-0.193-0.723c0.145-0.252,0.47-0.339,0.722-0.193l12.947,7.476c0.879,0.508,1.68,0.605,2.253,0.275
			c0.572-0.33,0.888-1.072,0.888-2.088v-3.123c0-1.409,0.503-2.476,1.416-3.003c0.915-0.528,2.09-0.43,3.31,0.274l2.704,1.561
			c0.253,0.146,0.339,0.47,0.193,0.723c-0.146,0.252-0.47,0.338-0.722,0.193l-2.704-1.561c-0.882-0.51-1.681-0.607-2.253-0.275
			c-0.572,0.33-0.888,1.072-0.888,2.088v3.123c0,1.409-0.503,2.476-1.416,3.003C255.739,283.178,255.304,283.288,254.839,283.288z"
			/>
		<path style="fill:#42E8E0;" d="M249.803,286.185c-0.631,0-1.319-0.204-2.022-0.609l-12.948-7.476
			c-0.253-0.147-0.339-0.47-0.193-0.723c0.146-0.252,0.47-0.339,0.722-0.193l12.948,7.476c0.881,0.51,1.681,0.607,2.253,0.275
			c0.572-0.33,0.888-1.072,0.888-2.089v-3.122c0-1.41,0.503-2.477,1.416-3.004c0.914-0.528,2.089-0.429,3.31,0.275l2.704,1.561
			c0.253,0.147,0.339,0.47,0.193,0.723c-0.146,0.252-0.47,0.338-0.722,0.193l-2.704-1.561c-0.879-0.508-1.68-0.607-2.253-0.275
			c-0.573,0.33-0.888,1.072-0.888,2.089v3.122c0,1.41-0.503,2.477-1.416,3.004C250.703,286.075,250.269,286.185,249.803,286.185z"/>
		<path style="fill:#42E8E0;" d="M244.767,289.082c-0.631,0.001-1.319-0.204-2.022-0.609l-12.948-7.476
			c-0.253-0.146-0.339-0.47-0.193-0.723c0.145-0.252,0.47-0.339,0.722-0.193l12.948,7.476c0.879,0.508,1.679,0.605,2.254,0.275
			c0.572-0.33,0.888-1.072,0.888-2.088v-3.123c0-1.409,0.503-2.477,1.416-3.003c0.913-0.529,2.088-0.429,3.309,0.274l2.705,1.561
			c0.253,0.147,0.339,0.47,0.193,0.723c-0.146,0.252-0.47,0.338-0.722,0.193l-2.705-1.562c-0.88-0.509-1.681-0.606-2.253-0.275
			c-0.572,0.33-0.888,1.071-0.888,2.088v3.123c0,1.409-0.503,2.476-1.416,3.003C245.667,288.971,245.232,289.082,244.767,289.082z"
			/>
		<path style="fill:#42E8E0;" d="M239.731,291.979c-0.631,0-1.319-0.205-2.022-0.611l-12.947-7.474
			c-0.253-0.147-0.339-0.47-0.193-0.722c0.146-0.253,0.47-0.34,0.722-0.194l12.947,7.475c0.88,0.51,1.682,0.608,2.253,0.276
			c0.573-0.33,0.888-1.072,0.888-2.089v-3.122c0-1.41,0.503-2.477,1.416-3.004c0.914-0.529,2.089-0.43,3.31,0.274l2.704,1.561
			c0.253,0.146,0.339,0.47,0.193,0.723c-0.146,0.253-0.47,0.338-0.722,0.193l-2.704-1.561c-0.879-0.508-1.681-0.606-2.253-0.275
			c-0.573,0.33-0.888,1.072-0.888,2.089v3.122c0,1.41-0.503,2.477-1.416,3.004C240.631,291.868,240.197,291.979,239.731,291.979z"/>
		<path style="fill:#42E8E0;" d="M234.695,294.876c-0.631,0-1.319-0.204-2.022-0.609l-12.948-7.475
			c-0.253-0.146-0.339-0.47-0.193-0.723c0.146-0.252,0.47-0.339,0.722-0.193l12.948,7.476c0.88,0.508,1.681,0.607,2.253,0.275
			c0.572-0.33,0.888-1.071,0.888-2.088v-3.123c0-1.41,0.503-2.477,1.416-3.004c0.914-0.527,2.089-0.429,3.31,0.276l2.704,1.561
			c0.253,0.147,0.339,0.47,0.193,0.723c-0.146,0.252-0.47,0.339-0.722,0.193l-2.704-1.562c-0.88-0.51-1.681-0.608-2.253-0.276
			c-0.573,0.331-0.888,1.072-0.888,2.089v3.123c0,1.409-0.503,2.477-1.416,3.003C235.596,294.766,235.161,294.876,234.695,294.876z"
			/>
		<path style="fill:#42E8E0;" d="M229.66,297.773c-0.631,0-1.319-0.205-2.023-0.611l-12.948-7.474
			c-0.253-0.146-0.339-0.47-0.193-0.722c0.146-0.254,0.47-0.339,0.722-0.194l12.948,7.475c0.88,0.51,1.682,0.607,2.253,0.276
			c0.573-0.33,0.888-1.072,0.888-2.089v-3.122c0-1.41,0.503-2.477,1.416-3.004c0.914-0.529,2.089-0.429,3.309,0.274l2.705,1.562
			c0.253,0.146,0.339,0.47,0.193,0.723c-0.146,0.252-0.47,0.339-0.722,0.193l-2.705-1.561c-0.88-0.509-1.679-0.605-2.253-0.275
			c-0.572,0.33-0.888,1.072-0.888,2.089v3.122c0,1.41-0.503,2.477-1.417,3.004C230.56,297.662,230.125,297.773,229.66,297.773z"/>
		<path style="fill:#42E8E0;" d="M224.623,300.67c-0.631,0-1.319-0.204-2.022-0.609l-12.947-7.476
			c-0.253-0.147-0.339-0.47-0.193-0.723c0.146-0.253,0.47-0.338,0.722-0.193l12.947,7.476c0.879,0.508,1.68,0.607,2.253,0.275
			c0.573-0.33,0.888-1.072,0.888-2.089v-3.122c0-1.41,0.503-2.477,1.417-3.004c0.913-0.526,2.088-0.429,3.31,0.276l2.704,1.56
			c0.252,0.146,0.339,0.47,0.193,0.722c-0.146,0.253-0.469,0.34-0.722,0.194l-2.704-1.561c-0.881-0.51-1.681-0.608-2.253-0.276
			c-0.573,0.33-0.888,1.072-0.888,2.089v3.122c0,1.41-0.503,2.477-1.416,3.004C225.523,300.559,225.088,300.67,224.623,300.67z"/>
		<path style="fill:#42E8E0;" d="M219.588,303.567c-0.631,0-1.319-0.205-2.022-0.611l-12.948-7.474
			c-0.253-0.147-0.339-0.47-0.193-0.722c0.145-0.254,0.47-0.339,0.722-0.194l12.948,7.475c0.88,0.51,1.68,0.607,2.253,0.276
			c0.572-0.33,0.888-1.072,0.888-2.089v-3.122c0-1.41,0.503-2.477,1.416-3.004c0.914-0.529,2.089-0.429,3.31,0.274l2.704,1.561
			c0.253,0.147,0.339,0.47,0.193,0.723c-0.146,0.252-0.47,0.339-0.722,0.193l-2.704-1.562c-0.879-0.508-1.68-0.606-2.253-0.275
			c-0.573,0.33-0.888,1.072-0.888,2.089v3.122c0,1.41-0.503,2.478-1.417,3.004C220.487,303.456,220.053,303.567,219.588,303.567z"/>
		<path style="fill:#42E8E0;" d="M214.551,306.464c-0.631,0-1.319-0.204-2.022-0.609l-12.948-7.476
			c-0.253-0.146-0.339-0.47-0.193-0.723c0.145-0.252,0.47-0.338,0.722-0.193l12.948,7.476c0.879,0.508,1.681,0.607,2.253,0.275
			c0.573-0.33,0.888-1.072,0.888-2.089v-3.122c0-1.41,0.503-2.478,1.417-3.004c0.913-0.528,2.088-0.43,3.309,0.276l2.704,1.56
			c0.252,0.146,0.339,0.47,0.193,0.722c-0.145,0.253-0.469,0.34-0.722,0.194l-2.704-1.56c-0.881-0.51-1.681-0.608-2.253-0.276
			c-0.572,0.33-0.888,1.072-0.888,2.089v3.122c0,1.41-0.503,2.477-1.416,3.004C215.452,306.353,215.017,306.464,214.551,306.464z"/>
		<path style="fill:#42E8E0;" d="M209.515,309.361c-0.631,0-1.319-0.205-2.022-0.611l-12.947-7.474
			c-0.253-0.147-0.339-0.47-0.193-0.722c0.146-0.254,0.471-0.34,0.722-0.194l12.947,7.475c0.88,0.51,1.68,0.607,2.253,0.276
			c0.573-0.331,0.888-1.072,0.888-2.089v-3.123c0-1.409,0.503-2.477,1.416-3.003c0.913-0.528,2.089-0.429,3.31,0.274l2.705,1.562
			c0.253,0.146,0.339,0.47,0.193,0.723c-0.146,0.252-0.471,0.339-0.722,0.193l-2.705-1.561c-0.88-0.508-1.68-0.607-2.253-0.275
			c-0.572,0.33-0.888,1.071-0.888,2.088v3.123c0,1.41-0.503,2.477-1.416,3.004C210.415,309.25,209.98,309.361,209.515,309.361z"/>
		<path style="fill:#42E8E0;" d="M204.479,312.258c-0.631,0-1.319-0.204-2.022-0.609l-12.947-7.476
			c-0.253-0.146-0.339-0.47-0.193-0.723c0.146-0.252,0.471-0.339,0.722-0.193l12.947,7.476c0.88,0.508,1.68,0.607,2.253,0.275
			c0.573-0.33,0.888-1.072,0.888-2.089v-3.122c0-1.41,0.503-2.477,1.417-3.004c0.913-0.526,2.088-0.429,3.309,0.276l2.704,1.559
			c0.253,0.147,0.339,0.47,0.193,0.722c-0.146,0.254-0.469,0.34-0.722,0.194l-2.704-1.561c-0.881-0.51-1.681-0.607-2.253-0.276
			c-0.573,0.33-0.888,1.072-0.888,2.089v3.122c0,1.41-0.503,2.477-1.416,3.004C205.379,312.147,204.944,312.258,204.479,312.258z"/>
		<path style="fill:#42E8E0;" d="M199.443,315.154c-0.631,0-1.319-0.204-2.022-0.609l-12.948-7.476
			c-0.253-0.147-0.339-0.47-0.193-0.723c0.146-0.252,0.469-0.338,0.722-0.193l12.948,7.475c0.88,0.509,1.68,0.608,2.253,0.275
			c0.572-0.33,0.888-1.071,0.888-2.088v-3.123c0-1.409,0.503-2.476,1.416-3.003c0.914-0.528,2.089-0.43,3.31,0.274l2.704,1.562
			c0.253,0.146,0.339,0.47,0.193,0.723c-0.146,0.252-0.471,0.338-0.722,0.193l-2.704-1.561c-0.881-0.51-1.681-0.607-2.253-0.275
			c-0.572,0.33-0.888,1.072-0.888,2.088v3.123c0,1.409-0.503,2.477-1.416,3.003C200.344,315.044,199.909,315.154,199.443,315.154z"
			/>
		<path style="fill:#42E8E0;" d="M194.407,318.052c-0.631,0-1.319-0.204-2.022-0.609l-12.948-7.476
			c-0.253-0.146-0.339-0.47-0.193-0.723c0.146-0.252,0.469-0.339,0.722-0.193l12.948,7.476c0.88,0.508,1.681,0.606,2.253,0.275
			c0.573-0.33,0.888-1.072,0.888-2.089v-3.122c0-1.41,0.503-2.477,1.416-3.004c0.914-0.528,2.089-0.43,3.31,0.274l2.705,1.561
			c0.253,0.147,0.339,0.47,0.193,0.723c-0.145,0.252-0.47,0.338-0.722,0.193l-2.704-1.562c-0.88-0.509-1.679-0.605-2.253-0.275
			c-0.572,0.33-0.888,1.072-0.888,2.089v3.122c0,1.41-0.503,2.477-1.416,3.004C195.308,317.941,194.873,318.052,194.407,318.052z"/>
	</g>
	<g>
		<path style="fill:#42E8E0;" d="M310.726,263.246c-0.466,0-0.9-0.11-1.288-0.335c-0.913-0.527-1.416-1.594-1.416-3.003v-3.123
			c0-1.016-0.315-1.758-0.888-2.088c-0.572-0.332-1.374-0.233-2.254,0.275l-2.703,1.561c-0.257,0.146-0.576,0.057-0.723-0.193
			c-0.146-0.253-0.059-0.576,0.193-0.723l2.704-1.561c1.223-0.704,2.398-0.803,3.311-0.274c0.913,0.527,1.416,1.594,1.416,3.003
			v3.123c0,1.016,0.315,1.758,0.888,2.088c0.572,0.331,1.372,0.232,2.254-0.275l12.946-7.475c0.257-0.147,0.575-0.058,0.723,0.193
			c0.145,0.253,0.059,0.576-0.193,0.723l-12.947,7.476C312.045,263.042,311.356,263.246,310.726,263.246z"/>
		<path style="fill:#42E8E0;" d="M315.761,266.143c-0.465,0-0.899-0.111-1.287-0.335c-0.913-0.527-1.416-1.594-1.416-3.004v-3.122
			c0-1.017-0.315-1.759-0.888-2.089c-0.575-0.332-1.374-0.233-2.253,0.275l-2.704,1.562c-0.258,0.145-0.576,0.057-0.723-0.193
			c-0.146-0.253-0.059-0.576,0.193-0.723l2.704-1.561c1.221-0.702,2.396-0.804,3.31-0.274c0.913,0.527,1.416,1.594,1.416,3.004
			v3.122c0,1.017,0.315,1.759,0.888,2.089c0.57,0.33,1.371,0.232,2.253-0.275l12.948-7.476c0.252-0.146,0.574-0.06,0.722,0.194
			c0.145,0.252,0.059,0.575-0.194,0.722l-12.947,7.475C317.08,265.938,316.393,266.143,315.761,266.143z"/>
		<path style="fill:#42E8E0;" d="M320.797,269.04c-0.465,0-0.899-0.11-1.287-0.334c-0.913-0.527-1.416-1.595-1.416-3.004v-3.123
			c0-1.016-0.315-1.758-0.888-2.088c-0.572-0.332-1.374-0.233-2.253,0.275l-2.704,1.562c-0.258,0.146-0.577,0.058-0.723-0.193
			c-0.146-0.253-0.059-0.576,0.193-0.723l2.704-1.562c1.222-0.704,2.396-0.804,3.311-0.274c0.913,0.527,1.416,1.594,1.416,3.003
			v3.123c0,1.017,0.315,1.758,0.888,2.088c0.571,0.33,1.372,0.233,2.252-0.275l12.948-7.476c0.256-0.148,0.575-0.058,0.723,0.193
			c0.145,0.253,0.059,0.576-0.193,0.723l-12.948,7.476C322.116,268.836,321.429,269.04,320.797,269.04z"/>
		<path style="fill:#42E8E0;" d="M325.833,271.937c-0.466,0-0.9-0.111-1.287-0.335c-0.914-0.527-1.417-1.594-1.417-3.004v-3.122
			c0-1.017-0.315-1.759-0.888-2.089c-0.572-0.332-1.373-0.233-2.252,0.275l-2.706,1.562c-0.252,0.145-0.574,0.06-0.722-0.194
			c-0.146-0.252-0.059-0.575,0.194-0.722l2.705-1.562c1.221-0.704,2.396-0.802,3.309-0.275c0.913,0.527,1.416,1.595,1.416,3.005
			v3.122c0,1.017,0.316,1.759,0.888,2.089c0.573,0.331,1.375,0.233,2.253-0.275l12.949-7.476c0.253-0.147,0.575-0.059,0.722,0.194
			c0.145,0.252,0.059,0.575-0.194,0.722l-12.948,7.475C327.152,271.732,326.464,271.937,325.833,271.937z"/>
		<path style="fill:#42E8E0;" d="M330.869,274.834c-0.466,0.001-0.9-0.11-1.288-0.335c-0.913-0.527-1.416-1.594-1.416-3.003v-3.123
			c0-1.017-0.315-1.758-0.888-2.089c-0.573-0.332-1.375-0.232-2.253,0.275l-2.704,1.563c-0.257,0.146-0.576,0.058-0.723-0.193
			c-0.146-0.253-0.059-0.576,0.193-0.723l2.704-1.561c1.223-0.703,2.398-0.801,3.311-0.275c0.913,0.527,1.416,1.594,1.416,3.004
			v3.123c0,1.016,0.315,1.758,0.888,2.088c0.571,0.33,1.372,0.232,2.254-0.275l12.946-7.476c0.257-0.146,0.575-0.058,0.723,0.193
			c0.146,0.253,0.059,0.576-0.193,0.723l-12.947,7.476C332.189,274.63,331.501,274.834,330.869,274.834z"/>
		<path style="fill:#42E8E0;" d="M335.904,277.731c-0.465,0-0.899-0.111-1.287-0.335c-0.913-0.527-1.416-1.594-1.416-3.004v-3.122
			c0-1.017-0.316-1.759-0.888-2.089c-0.573-0.332-1.374-0.231-2.254,0.275l-2.703,1.561c-0.258,0.146-0.576,0.058-0.723-0.193
			c-0.146-0.253-0.059-0.576,0.193-0.723l2.704-1.561c1.223-0.704,2.398-0.803,3.311-0.275c0.913,0.527,1.416,1.594,1.416,3.004
			v3.122c0,1.017,0.315,1.759,0.888,2.089c0.571,0.33,1.371,0.232,2.253-0.275l12.948-7.476c0.252-0.146,0.574-0.059,0.722,0.194
			c0.146,0.252,0.059,0.575-0.194,0.722l-12.947,7.475C337.224,277.526,336.536,277.731,335.904,277.731z"/>
		<path style="fill:#42E8E0;" d="M340.941,280.628c-0.466,0-0.9-0.11-1.288-0.335c-0.913-0.527-1.416-1.594-1.416-3.004v-3.122
			c0-1.017-0.315-1.759-0.888-2.089c-0.573-0.332-1.372-0.234-2.253,0.276l-2.705,1.561c-0.254,0.148-0.575,0.059-0.722-0.194
			c-0.146-0.252-0.059-0.575,0.194-0.722l2.704-1.561c1.221-0.703,2.396-0.803,3.31-0.275c0.913,0.527,1.416,1.594,1.416,3.004
			v3.122c0,1.017,0.316,1.759,0.888,2.089c0.574,0.333,1.375,0.232,2.254-0.275l12.946-7.476c0.256-0.147,0.575-0.059,0.723,0.193
			c0.146,0.253,0.059,0.576-0.193,0.723l-12.947,7.476C342.261,280.424,341.572,280.628,340.941,280.628z"/>
		<path style="fill:#42E8E0;" d="M345.977,283.525c-0.465,0-0.9-0.111-1.287-0.335c-0.913-0.527-1.416-1.594-1.416-3.004v-3.122
			c0-1.017-0.315-1.759-0.888-2.089c-0.575-0.332-1.374-0.233-2.253,0.275l-2.704,1.561c-0.258,0.146-0.577,0.058-0.723-0.193
			c-0.146-0.253-0.059-0.576,0.193-0.723l2.704-1.561c1.221-0.703,2.398-0.803,3.311-0.274c0.913,0.527,1.416,1.594,1.416,3.004
			v3.122c0,1.017,0.315,1.759,0.888,2.089c0.571,0.33,1.371,0.232,2.253-0.276l12.948-7.475c0.253-0.147,0.575-0.059,0.722,0.194
			c0.146,0.252,0.059,0.575-0.194,0.722l-12.947,7.475C347.296,283.32,346.608,283.525,345.977,283.525z"/>
		<path style="fill:#42E8E0;" d="M351.014,286.422c-0.466,0-0.9-0.11-1.288-0.334c-0.913-0.527-1.416-1.595-1.416-3.005v-3.122
			c0-1.017-0.316-1.759-0.888-2.089c-0.573-0.332-1.375-0.232-2.253,0.275l-2.705,1.561c-0.254,0.147-0.575,0.059-0.722-0.194
			c-0.146-0.252-0.059-0.575,0.194-0.722l2.704-1.56c1.221-0.704,2.398-0.801,3.309-0.275c0.914,0.527,1.417,1.594,1.417,3.004
			v3.122c0,1.017,0.315,1.759,0.888,2.089c0.572,0.33,1.372,0.232,2.252-0.275l12.948-7.476c0.256-0.146,0.576-0.059,0.723,0.193
			c0.146,0.253,0.059,0.576-0.193,0.723l-12.948,7.475C352.332,286.218,351.645,286.422,351.014,286.422z"/>
		<path style="fill:#42E8E0;" d="M356.049,289.319c-0.465,0-0.899-0.111-1.287-0.335c-0.914-0.527-1.417-1.594-1.417-3.004v-3.123
			c0-1.017-0.315-1.758-0.888-2.088c-0.572-0.332-1.373-0.233-2.252,0.275l-2.706,1.561c-0.255,0.146-0.575,0.058-0.722-0.194
			c-0.145-0.252-0.059-0.575,0.194-0.722l2.705-1.562c1.219-0.703,2.395-0.803,3.309-0.275c0.913,0.527,1.416,1.595,1.416,3.004
			v3.123c0,1.017,0.315,1.758,0.889,2.089c0.57,0.33,1.372,0.232,2.252-0.275l12.949-7.476c0.253-0.148,0.575-0.059,0.722,0.194
			c0.146,0.252,0.059,0.575-0.194,0.722l-12.948,7.475C357.368,289.114,356.681,289.319,356.049,289.319z"/>
		<path style="fill:#42E8E0;" d="M361.085,292.216c-0.465,0-0.9-0.11-1.288-0.335c-0.913-0.527-1.416-1.594-1.416-3.004v-3.122
			c0-1.017-0.315-1.759-0.888-2.089c-0.572-0.332-1.373-0.234-2.253,0.276l-2.705,1.561c-0.253,0.147-0.575,0.059-0.722-0.194
			c-0.146-0.252-0.059-0.575,0.194-0.722l2.704-1.561c1.222-0.703,2.396-0.802,3.31-0.275c0.913,0.527,1.416,1.594,1.416,3.004
			v3.122c0,1.017,0.315,1.759,0.888,2.089c0.574,0.33,1.373,0.233,2.253-0.275l12.947-7.476c0.256-0.147,0.575-0.058,0.723,0.193
			c0.146,0.253,0.059,0.576-0.193,0.723l-12.947,7.476C362.404,292.012,361.717,292.216,361.085,292.216z"/>
		<path style="fill:#42E8E0;" d="M366.121,295.112c-0.466,0-0.9-0.11-1.288-0.335c-0.913-0.527-1.416-1.594-1.416-3.003v-3.123
			c0-1.016-0.315-1.758-0.888-2.088c-0.572-0.332-1.374-0.233-2.254,0.275l-2.703,1.561c-0.258,0.145-0.577,0.058-0.723-0.193
			c-0.145-0.253-0.059-0.576,0.193-0.723l2.704-1.561c1.224-0.704,2.398-0.802,3.31-0.274c0.913,0.527,1.416,1.594,1.416,3.003
			v3.123c0,1.016,0.315,1.758,0.888,2.088c0.571,0.33,1.373,0.233,2.254-0.275l12.946-7.476c0.256-0.147,0.576-0.059,0.723,0.193
			c0.146,0.253,0.059,0.576-0.193,0.723l-12.947,7.476C367.44,294.908,366.752,295.112,366.121,295.112z"/>
		<path style="fill:#42E8E0;" d="M371.157,298.01c-0.466,0-0.9-0.11-1.288-0.335c-0.913-0.527-1.416-1.594-1.416-3.004v-3.122
			c0-1.017-0.315-1.759-0.888-2.089c-0.572-0.331-1.375-0.231-2.254,0.275l-2.703,1.561c-0.257,0.146-0.577,0.058-0.723-0.193
			c-0.145-0.253-0.059-0.576,0.193-0.723l2.704-1.561c1.223-0.704,2.398-0.803,3.311-0.274c0.913,0.527,1.416,1.594,1.416,3.004
			v3.122c0,1.017,0.315,1.759,0.888,2.089c0.574,0.333,1.376,0.233,2.254-0.275l12.946-7.476c0.256-0.147,0.576-0.059,0.723,0.193
			c0.146,0.253,0.059,0.576-0.193,0.723L373.18,297.4C372.477,297.806,371.788,298.01,371.157,298.01z"/>
		<path style="fill:#42E8E0;" d="M376.193,300.906c-0.466,0-0.9-0.11-1.288-0.335c-0.913-0.527-1.416-1.594-1.416-3.003v-3.123
			c0-1.016-0.315-1.758-0.888-2.088c-0.573-0.332-1.373-0.233-2.254,0.275l-2.703,1.562c-0.257,0.145-0.576,0.058-0.723-0.193
			c-0.146-0.253-0.059-0.576,0.193-0.723l2.704-1.562c1.223-0.704,2.398-0.803,3.311-0.274c0.913,0.527,1.416,1.594,1.416,3.003
			v3.123c0,1.016,0.315,1.758,0.888,2.088c0.571,0.33,1.373,0.233,2.254-0.275l12.946-7.476c0.255-0.147,0.576-0.058,0.723,0.193
			c0.146,0.253,0.059,0.576-0.193,0.723l-12.947,7.476C377.513,300.702,376.824,300.906,376.193,300.906z"/>
		<path style="fill:#42E8E0;" d="M381.229,303.804c-0.466,0-0.9-0.11-1.288-0.335c-0.913-0.527-1.416-1.594-1.416-3.004v-3.122
			c0-1.017-0.315-1.759-0.888-2.089c-0.575-0.332-1.373-0.233-2.253,0.275l-2.704,1.562c-0.257,0.145-0.576,0.058-0.723-0.193
			c-0.146-0.253-0.059-0.576,0.193-0.723l2.704-1.561c1.222-0.703,2.397-0.804,3.31-0.274c0.913,0.527,1.416,1.594,1.416,3.004
			v3.122c0,1.017,0.315,1.759,0.888,2.089c0.574,0.333,1.376,0.232,2.254-0.275l12.946-7.476c0.257-0.148,0.576-0.059,0.723,0.193
			c0.146,0.253,0.059,0.576-0.193,0.723l-12.947,7.476C382.549,303.599,381.86,303.804,381.229,303.804z"/>
		<path style="fill:#42E8E0;" d="M386.265,306.7c-0.465,0-0.899-0.11-1.287-0.334c-0.913-0.527-1.416-1.595-1.416-3.004v-3.123
			c0-1.016-0.315-1.758-0.888-2.088c-0.572-0.331-1.374-0.233-2.253,0.275l-2.704,1.561c-0.258,0.146-0.576,0.058-0.723-0.193
			c-0.145-0.253-0.059-0.576,0.193-0.723l2.704-1.562c1.222-0.703,2.397-0.804,3.31-0.274c0.913,0.527,1.416,1.594,1.416,3.003
			v3.123c0,1.017,0.315,1.758,0.888,2.088c0.571,0.33,1.372,0.232,2.252-0.275l12.948-7.475c0.256-0.147,0.575-0.059,0.723,0.193
			c0.146,0.253,0.059,0.576-0.193,0.723l-12.948,7.476C387.584,306.496,386.896,306.7,386.265,306.7z"/>
		<path style="fill:#42E8E0;" d="M391.301,309.598c-0.466,0-0.9-0.111-1.287-0.335c-0.914-0.527-1.417-1.594-1.417-3.004v-3.122
			c0-1.017-0.315-1.759-0.888-2.089c-0.572-0.332-1.373-0.233-2.252,0.275l-2.706,1.562c-0.251,0.145-0.574,0.06-0.722-0.194
			c-0.146-0.252-0.059-0.575,0.194-0.722l2.705-1.561c1.221-0.703,2.397-0.801,3.309-0.275c0.913,0.527,1.416,1.595,1.416,3.005
			v3.122c0,1.017,0.315,1.759,0.888,2.089c0.573,0.332,1.375,0.232,2.253-0.275l12.949-7.476c0.254-0.146,0.574-0.059,0.722,0.194
			c0.146,0.252,0.059,0.575-0.194,0.722l-12.948,7.475C392.62,309.392,391.932,309.598,391.301,309.598z"/>
		<path style="fill:#42E8E0;" d="M396.337,312.494c-0.465,0.001-0.9-0.11-1.288-0.335c-0.913-0.527-1.416-1.594-1.416-3.003v-3.123
			c0-1.017-0.315-1.758-0.888-2.089c-0.573-0.332-1.375-0.232-2.253,0.275l-2.704,1.563c-0.257,0.146-0.576,0.058-0.723-0.193
			c-0.146-0.253-0.059-0.576,0.193-0.723l2.704-1.562c1.223-0.704,2.398-0.802,3.311-0.275c0.913,0.527,1.416,1.594,1.416,3.004
			v3.123c0,1.016,0.315,1.758,0.888,2.088c0.572,0.33,1.373,0.233,2.253-0.275l12.947-7.476c0.255-0.148,0.576-0.059,0.723,0.193
			c0.145,0.253,0.059,0.576-0.193,0.723l-12.947,7.476C397.656,312.29,396.969,312.494,396.337,312.494z"/>
		<path style="fill:#42E8E0;" d="M401.372,315.391c-0.465,0-0.899-0.111-1.287-0.335c-0.913-0.527-1.416-1.594-1.416-3.004v-3.122
			c0-1.017-0.315-1.759-0.888-2.089c-0.573-0.331-1.374-0.231-2.254,0.275l-2.703,1.562c-0.257,0.146-0.576,0.058-0.723-0.193
			c-0.146-0.253-0.059-0.576,0.193-0.723l2.704-1.562c1.223-0.704,2.397-0.802,3.311-0.274c0.913,0.527,1.416,1.594,1.416,3.004
			v3.122c0,1.017,0.315,1.759,0.888,2.089c0.572,0.33,1.371,0.233,2.253-0.275l12.948-7.476c0.252-0.147,0.575-0.059,0.722,0.194
			c0.145,0.252,0.059,0.575-0.194,0.722l-12.947,7.475C402.691,315.186,402.004,315.391,401.372,315.391z"/>
		<path style="fill:#42E8E0;" d="M406.409,318.288c-0.466,0-0.9-0.11-1.288-0.335c-0.913-0.527-1.416-1.594-1.416-3.003v-3.123
			c0-1.017-0.315-1.758-0.888-2.089c-0.574-0.332-1.374-0.233-2.253,0.276l-2.704,1.561c-0.258,0.146-0.576,0.058-0.723-0.193
			c-0.146-0.253-0.059-0.576,0.193-0.723l2.704-1.561c1.223-0.705,2.397-0.802,3.311-0.275c0.913,0.527,1.416,1.594,1.416,3.004
			v3.123c0,1.016,0.315,1.758,0.888,2.088c0.571,0.33,1.373,0.232,2.254-0.275l12.946-7.476c0.256-0.146,0.575-0.059,0.723,0.193
			c0.146,0.253,0.059,0.576-0.193,0.723l-12.947,7.476C407.728,318.084,407.04,318.288,406.409,318.288z"/>
	</g>
	<g>
		<g>
			
				<linearGradient id="SVGID_00000055695335093709623670000003255147776410051216_" gradientUnits="userSpaceOnUse" x1="151.7615" y1="346.7078" x2="406.7506" y2="346.7078">
				<stop  offset="0" style="stop-color:#5761D7"/>
				<stop  offset="0.1645" style="stop-color:#5E67DA"/>
				<stop  offset="0.4051" style="stop-color:#727AE2"/>
				<stop  offset="0.6924" style="stop-color:#9297EE"/>
				<stop  offset="1" style="stop-color:#BCBEFF"/>
			</linearGradient>
			<polygon style="fill:url(#SVGID_00000055695335093709623670000003255147776410051216_);" points="399.943,312.239 
				399.943,323.736 300.451,381.178 200.955,323.735 200.955,312.237 			"/>
			<polygon style="fill:#BCBEFF;" points="300.451,369.681 200.955,312.237 300.448,254.795 399.943,312.239 			"/>
			<polygon style="fill:#FFFFFF;" points="300.451,368.338 202.119,311.566 200.955,312.237 300.451,369.681 399.943,312.239 
				398.78,311.567 			"/>
		</g>
		<g>
			<polygon style="fill:#0F054C;" points="300.451,356.432 223.925,312.25 300.448,268.069 376.973,312.251 			"/>
			<g>
				
					<linearGradient id="SVGID_00000042728729467025169340000002803080906703087786_" gradientUnits="userSpaceOnUse" x1="223.9239" y1="312.2515" x2="376.975" y2="312.2515">
					<stop  offset="0" style="stop-color:#42E8E0"/>
					<stop  offset="0.1507" style="stop-color:#43E3E0"/>
					<stop  offset="0.3285" style="stop-color:#45D5DF"/>
					<stop  offset="0.5199" style="stop-color:#49BDDD"/>
					<stop  offset="0.7209" style="stop-color:#4E9CDB"/>
					<stop  offset="0.9274" style="stop-color:#5472D8"/>
					<stop  offset="1" style="stop-color:#5761D7"/>
				</linearGradient>
				<polygon style="opacity:0.5;fill:url(#SVGID_00000042728729467025169340000002803080906703087786_);" points="300.451,356.434 
					223.924,312.251 300.448,268.069 376.975,312.252 				"/>
				<g>
					
						<linearGradient id="SVGID_00000140713276143965758930000004352998697308456863_" gradientUnits="userSpaceOnUse" x1="300.4483" y1="284.5898" x2="376.975" y2="284.5898">
						<stop  offset="0" style="stop-color:#42E8E0"/>
						<stop  offset="0.1507" style="stop-color:#43E3E0"/>
						<stop  offset="0.3285" style="stop-color:#45D5DF"/>
						<stop  offset="0.5199" style="stop-color:#49BDDD"/>
						<stop  offset="0.7209" style="stop-color:#4E9CDB"/>
						<stop  offset="0.9274" style="stop-color:#5472D8"/>
						<stop  offset="1" style="stop-color:#5761D7"/>
					</linearGradient>
					<polygon style="opacity:0.5;fill:url(#SVGID_00000140713276143965758930000004352998697308456863_);" points="300.448,256.928 
						376.975,301.111 376.975,312.251 300.448,268.069 					"/>
					
						<linearGradient id="SVGID_00000176022780726151038270000009081634723481962891_" gradientUnits="userSpaceOnUse" x1="223.9239" y1="284.5891" x2="300.4506" y2="284.5891">
						<stop  offset="0" style="stop-color:#42E8E0"/>
						<stop  offset="0.1507" style="stop-color:#43E3E0"/>
						<stop  offset="0.3285" style="stop-color:#45D5DF"/>
						<stop  offset="0.5199" style="stop-color:#49BDDD"/>
						<stop  offset="0.7209" style="stop-color:#4E9CDB"/>
						<stop  offset="0.9274" style="stop-color:#5472D8"/>
						<stop  offset="1" style="stop-color:#5761D7"/>
					</linearGradient>
					<polygon style="opacity:0.5;fill:url(#SVGID_00000176022780726151038270000009081634723481962891_);" points="300.451,268.069 
						223.924,312.25 223.924,301.109 300.448,256.928 					"/>
					
						<linearGradient id="SVGID_00000101805060755682173940000013112821670739919798_" gradientUnits="userSpaceOnUse" x1="223.9239" y1="301.1101" x2="376.975" y2="301.1101">
						<stop  offset="0" style="stop-color:#42E8E0"/>
						<stop  offset="0.1507" style="stop-color:#43E3E0"/>
						<stop  offset="0.3285" style="stop-color:#45D5DF"/>
						<stop  offset="0.5199" style="stop-color:#49BDDD"/>
						<stop  offset="0.7209" style="stop-color:#4E9CDB"/>
						<stop  offset="0.9274" style="stop-color:#5472D8"/>
						<stop  offset="1" style="stop-color:#5761D7"/>
					</linearGradient>
					<polygon style="opacity:0.5;fill:url(#SVGID_00000101805060755682173940000013112821670739919798_);" points="300.451,345.292 
						223.924,301.109 300.448,256.928 376.975,301.111 					"/>
					<polygon style="opacity:0.5;fill:#42E8E0;" points="300.45,318.764 269.871,301.11 300.449,283.456 331.027,301.11 					"/>
					<polygon style="opacity:0.5;fill:#42E8E0;" points="300.449,285.08 329.621,301.923 331.027,301.111 300.449,283.456 
						269.872,301.11 271.278,301.922 					"/>
					
						<linearGradient id="SVGID_00000158024031031621251100000010927606054506899588_" gradientUnits="userSpaceOnUse" x1="300.4506" y1="328.7719" x2="376.975" y2="328.7719">
						<stop  offset="0" style="stop-color:#42E8E0"/>
						<stop  offset="0.1507" style="stop-color:#43E3E0"/>
						<stop  offset="0.3285" style="stop-color:#45D5DF"/>
						<stop  offset="0.5199" style="stop-color:#49BDDD"/>
						<stop  offset="0.7209" style="stop-color:#4E9CDB"/>
						<stop  offset="0.9274" style="stop-color:#5472D8"/>
						<stop  offset="1" style="stop-color:#5761D7"/>
					</linearGradient>
					<polygon style="opacity:0.5;fill:url(#SVGID_00000158024031031621251100000010927606054506899588_);" points="300.451,345.292 
						300.451,356.433 376.975,312.251 376.975,301.111 					"/>
				</g>
				
					<linearGradient id="SVGID_00000159441434721445591260000013157196407393015449_" gradientUnits="userSpaceOnUse" x1="223.9239" y1="328.7712" x2="300.4506" y2="328.7712">
					<stop  offset="0" style="stop-color:#42E8E0"/>
					<stop  offset="0.1507" style="stop-color:#43E3E0"/>
					<stop  offset="0.3285" style="stop-color:#45D5DF"/>
					<stop  offset="0.5199" style="stop-color:#49BDDD"/>
					<stop  offset="0.7209" style="stop-color:#4E9CDB"/>
					<stop  offset="0.9274" style="stop-color:#5472D8"/>
					<stop  offset="1" style="stop-color:#5761D7"/>
				</linearGradient>
				<polygon style="opacity:0.5;fill:url(#SVGID_00000159441434721445591260000013157196407393015449_);" points="223.924,301.109 
					223.924,312.25 300.451,356.433 300.451,345.292 				"/>
			</g>
			<polygon style="opacity:0.8;fill:#42E8E0;" points="300.451,344.076 224.977,300.501 223.924,301.11 300.451,345.292 
				376.975,301.111 375.922,300.503 			"/>
		</g>
	</g>
	<g>
		<path style="fill:#42E8E0;" d="M325.43,395.045c-0.089,0-0.18-0.022-0.263-0.07L312.22,387.5c-2.354-1.36-4.198-4.554-4.198-7.27
			v-3.123c0-2.337-1.646-5.188-3.669-6.354l-2.705-1.561c-0.252-0.147-0.339-0.47-0.193-0.723c0.146-0.251,0.466-0.341,0.723-0.193
			l2.704,1.561c2.354,1.358,4.197,4.552,4.197,7.271v3.123c0,2.336,1.646,5.187,3.67,6.354l12.946,7.475
			c0.253,0.146,0.34,0.47,0.194,0.722C325.79,394.95,325.612,395.045,325.43,395.045z"/>
		<path style="fill:#42E8E0;" d="M330.466,392.143c-0.089,0-0.18-0.022-0.264-0.07l-12.947-7.476
			c-2.353-1.358-4.197-4.552-4.197-7.271v-3.123c0-2.336-1.646-5.186-3.67-6.354l-2.704-1.562c-0.252-0.147-0.339-0.47-0.193-0.723
			c0.146-0.251,0.465-0.341,0.723-0.193l2.704,1.562c2.354,1.359,4.197,4.553,4.197,7.27v3.123c0,2.337,1.646,5.188,3.669,6.354
			l12.948,7.476c0.252,0.146,0.339,0.47,0.193,0.723C330.826,392.049,330.648,392.143,330.466,392.143z"/>
		<path style="fill:#42E8E0;" d="M335.502,389.241c-0.089,0-0.18-0.022-0.264-0.07l-12.948-7.475
			c-2.353-1.359-4.196-4.553-4.196-7.271v-3.122c0-2.336-1.646-5.187-3.67-6.357l-2.703-1.56c-0.253-0.146-0.34-0.47-0.194-0.722
			c0.146-0.253,0.467-0.341,0.722-0.194l2.704,1.561c2.354,1.36,4.198,4.555,4.198,7.272v3.122c0,2.336,1.646,5.188,3.669,6.355
			l12.948,7.476c0.252,0.147,0.339,0.47,0.193,0.723C335.862,389.146,335.685,389.241,335.502,389.241z"/>
		<path style="fill:#42E8E0;" d="M340.538,386.34c-0.089,0-0.18-0.022-0.264-0.07l-12.948-7.476
			c-2.354-1.359-4.197-4.553-4.197-7.271V368.4c0-2.336-1.646-5.188-3.669-6.355l-2.704-1.561c-0.253-0.146-0.34-0.47-0.194-0.722
			c0.147-0.253,0.467-0.341,0.722-0.194l2.705,1.561c2.354,1.359,4.197,4.553,4.197,7.271v3.123c0,2.336,1.647,5.187,3.67,6.355
			l12.948,7.476c0.252,0.146,0.339,0.47,0.193,0.723C340.898,386.245,340.721,386.34,340.538,386.34z"/>
		<path style="fill:#42E8E0;" d="M345.573,383.437c-0.089,0-0.18-0.022-0.264-0.07l-12.947-7.476
			c-2.354-1.359-4.197-4.553-4.197-7.27v-3.123c0-2.336-1.646-5.186-3.67-6.355l-2.704-1.56c-0.252-0.147-0.339-0.47-0.193-0.723
			c0.146-0.252,0.466-0.34,0.723-0.193l2.704,1.561c2.354,1.36,4.197,4.554,4.197,7.271v3.123c0,2.336,1.647,5.187,3.669,6.354
			l12.948,7.476c0.252,0.147,0.339,0.47,0.193,0.723C345.934,383.343,345.756,383.437,345.573,383.437z"/>
		<path style="fill:#42E8E0;" d="M350.609,380.535c-0.089,0-0.18-0.022-0.263-0.07l-12.947-7.475
			c-2.354-1.36-4.198-4.554-4.198-7.272v-3.122c0-2.337-1.647-5.188-3.669-6.354l-2.705-1.561c-0.252-0.147-0.339-0.47-0.193-0.723
			c0.147-0.252,0.465-0.34,0.723-0.193l2.704,1.561c2.354,1.358,4.197,4.552,4.197,7.271v3.122c0,2.336,1.647,5.188,3.67,6.355
			l12.946,7.475c0.253,0.146,0.34,0.47,0.194,0.722C350.97,380.44,350.792,380.535,350.609,380.535z"/>
		<path style="fill:#42E8E0;" d="M355.646,377.634c-0.089,0-0.18-0.022-0.264-0.07l-12.947-7.476
			c-2.354-1.358-4.197-4.552-4.197-7.271v-3.123c0-2.337-1.647-5.188-3.669-6.355l-2.705-1.561c-0.252-0.146-0.339-0.47-0.193-0.723
			c0.146-0.252,0.465-0.341,0.723-0.193l2.704,1.562c2.354,1.358,4.197,4.552,4.197,7.271v3.123c0,2.337,1.647,5.188,3.669,6.354
			l12.948,7.476c0.252,0.146,0.339,0.47,0.193,0.723C356.006,377.539,355.828,377.634,355.646,377.634z"/>
		<path style="fill:#42E8E0;" d="M360.682,374.731c-0.089,0-0.18-0.022-0.264-0.07l-12.947-7.476
			c-2.354-1.358-4.197-4.552-4.197-7.271v-3.122c0-2.336-1.646-5.186-3.67-6.356l-2.704-1.561c-0.252-0.146-0.339-0.47-0.193-0.723
			c0.146-0.252,0.465-0.341,0.723-0.193l2.704,1.561c2.354,1.36,4.197,4.555,4.197,7.271v3.122c0,2.337,1.647,5.188,3.669,6.355
			l12.948,7.476c0.252,0.146,0.339,0.47,0.193,0.723C361.042,374.637,360.864,374.731,360.682,374.731z"/>
		<path style="fill:#42E8E0;" d="M365.718,371.829c-0.089,0-0.18-0.022-0.263-0.07l-12.948-7.475
			c-2.354-1.36-4.197-4.554-4.197-7.271v-3.122c0-2.336-1.647-5.187-3.67-6.354l-2.704-1.562c-0.252-0.146-0.339-0.47-0.193-0.723
			c0.146-0.251,0.466-0.341,0.723-0.193l2.704,1.562c2.354,1.359,4.197,4.553,4.197,7.271v3.122c0,2.336,1.646,5.188,3.669,6.356
			l12.947,7.474c0.253,0.147,0.34,0.47,0.194,0.722C366.078,371.734,365.9,371.829,365.718,371.829z"/>
		<path style="fill:#42E8E0;" d="M370.754,368.928c-0.089,0-0.18-0.023-0.264-0.07l-12.948-7.476
			c-2.353-1.359-4.197-4.553-4.197-7.271v-3.123c0-2.336-1.646-5.188-3.669-6.354l-2.704-1.561c-0.253-0.147-0.34-0.47-0.194-0.722
			c0.147-0.253,0.467-0.341,0.722-0.194l2.705,1.561c2.353,1.359,4.197,4.553,4.197,7.271v3.123c0,2.336,1.646,5.186,3.67,6.354
			l12.948,7.475c0.252,0.147,0.339,0.47,0.193,0.723C371.114,368.833,370.936,368.928,370.754,368.928z"/>
		<path style="fill:#42E8E0;" d="M375.789,366.025c-0.089,0-0.18-0.022-0.264-0.07l-12.947-7.476
			c-2.354-1.359-4.197-4.553-4.197-7.271v-3.122c0-2.336-1.646-5.188-3.67-6.355l-2.703-1.561c-0.253-0.146-0.34-0.47-0.194-0.722
			c0.146-0.253,0.467-0.342,0.722-0.194l2.704,1.561c2.354,1.36,4.198,4.554,4.198,7.271v3.122c0,2.336,1.647,5.186,3.67,6.354
			l12.947,7.476c0.252,0.146,0.339,0.47,0.193,0.723C376.149,365.931,375.972,366.025,375.789,366.025z"/>
		<path style="fill:#42E8E0;" d="M380.825,363.123c-0.089,0-0.18-0.022-0.263-0.07l-12.947-7.475
			c-2.355-1.36-4.198-4.554-4.198-7.272v-3.122c0-2.337-1.646-5.188-3.669-6.354l-2.705-1.561c-0.252-0.147-0.339-0.47-0.193-0.723
			c0.146-0.251,0.465-0.34,0.723-0.193l2.704,1.562c2.353,1.358,4.197,4.552,4.197,7.27v3.122c0,2.336,1.646,5.188,3.67,6.355
			l12.946,7.475c0.253,0.146,0.34,0.47,0.194,0.722C381.185,363.028,381.008,363.123,380.825,363.123z"/>
		<path style="fill:#42E8E0;" d="M385.861,360.221c-0.089,0-0.18-0.022-0.264-0.07l-12.947-7.476
			c-2.353-1.358-4.197-4.552-4.197-7.271v-3.123c0-2.337-1.647-5.188-3.669-6.354l-2.705-1.562c-0.252-0.146-0.339-0.47-0.193-0.723
			c0.146-0.251,0.466-0.341,0.723-0.193l2.704,1.562c2.353,1.358,4.197,4.552,4.197,7.271v3.123c0,2.337,1.646,5.188,3.669,6.355
			l12.948,7.476c0.252,0.147,0.339,0.47,0.193,0.723C386.222,360.127,386.044,360.221,385.861,360.221z"/>
		<path style="fill:#42E8E0;" d="M390.897,357.319c-0.089,0-0.18-0.023-0.264-0.07l-12.947-7.476
			c-2.353-1.358-4.197-4.552-4.197-7.27v-3.122c0-2.336-1.646-5.188-3.67-6.356l-2.703-1.56c-0.253-0.146-0.34-0.47-0.194-0.722
			c0.145-0.252,0.467-0.342,0.722-0.194l2.704,1.56c2.354,1.36,4.198,4.554,4.198,7.272v3.122c0,2.337,1.646,5.188,3.669,6.354
			l12.948,7.475c0.252,0.147,0.339,0.47,0.193,0.723C391.258,357.224,391.08,357.319,390.897,357.319z"/>
		<path style="fill:#42E8E0;" d="M395.934,354.417c-0.089,0-0.18-0.022-0.263-0.07l-12.947-7.475
			c-2.355-1.36-4.198-4.554-4.198-7.271v-3.122c0-2.336-1.646-5.187-3.67-6.354l-2.704-1.562c-0.252-0.146-0.339-0.47-0.193-0.723
			c0.146-0.252,0.466-0.34,0.723-0.193l2.704,1.561c2.353,1.359,4.197,4.553,4.197,7.271v3.122c0,2.336,1.646,5.188,3.67,6.357
			l12.946,7.474c0.253,0.146,0.34,0.47,0.194,0.722C396.294,354.322,396.116,354.417,395.934,354.417z"/>
		<path style="fill:#42E8E0;" d="M400.97,351.516c-0.089,0-0.18-0.022-0.264-0.07l-12.948-7.476
			c-2.352-1.359-4.196-4.553-4.196-7.271v-3.123c0-2.336-1.646-5.186-3.67-6.354l-2.704-1.561c-0.252-0.147-0.339-0.47-0.193-0.723
			c0.147-0.252,0.465-0.34,0.723-0.193l2.704,1.562c2.353,1.359,4.197,4.553,4.197,7.27v3.123c0,2.336,1.646,5.188,3.669,6.354
			l12.948,7.476c0.252,0.146,0.339,0.47,0.193,0.723C401.33,351.421,401.152,351.516,400.97,351.516z"/>
		<path style="fill:#42E8E0;" d="M406.006,348.613c-0.089,0-0.18-0.022-0.264-0.07l-12.948-7.476
			c-2.353-1.359-4.197-4.553-4.197-7.271v-3.122c0-2.336-1.645-5.188-3.669-6.356l-2.704-1.56c-0.253-0.147-0.34-0.47-0.194-0.722
			c0.146-0.253,0.466-0.342,0.722-0.194l2.705,1.561c2.354,1.36,4.197,4.554,4.197,7.271v3.122c0,2.336,1.647,5.186,3.67,6.355
			l12.948,7.476c0.252,0.146,0.339,0.47,0.193,0.723C406.366,348.518,406.188,348.613,406.006,348.613z"/>
		<path style="fill:#42E8E0;" d="M411.041,345.711c-0.089,0-0.18-0.022-0.263-0.07l-12.947-7.475
			c-2.354-1.36-4.198-4.555-4.198-7.271v-3.122c0-2.337-1.646-5.188-3.669-6.355l-2.705-1.561c-0.252-0.146-0.339-0.47-0.193-0.723
			c0.146-0.252,0.466-0.341,0.723-0.193l2.704,1.561c2.354,1.358,4.197,4.552,4.197,7.271v3.122c0,2.336,1.646,5.186,3.67,6.356
			l12.946,7.474c0.253,0.146,0.34,0.47,0.194,0.722C411.401,345.616,411.224,345.711,411.041,345.711z"/>
		<path style="fill:#42E8E0;" d="M416.077,342.809c-0.089,0-0.18-0.022-0.264-0.07l-12.947-7.476
			c-2.353-1.358-4.197-4.552-4.197-7.27v-3.123c0-2.337-1.646-5.188-3.669-6.354l-2.705-1.562c-0.252-0.146-0.339-0.47-0.193-0.723
			c0.146-0.252,0.466-0.341,0.723-0.193l2.704,1.562c2.354,1.358,4.197,4.552,4.197,7.271v3.123c0,2.337,1.647,5.188,3.669,6.354
			l12.948,7.476c0.252,0.147,0.339,0.47,0.193,0.723C416.438,342.715,416.26,342.809,416.077,342.809z"/>
		<path style="fill:#42E8E0;" d="M421.113,339.907c-0.089,0-0.18-0.022-0.264-0.07l-12.947-7.476
			c-2.353-1.358-4.197-4.552-4.197-7.271v-3.122c0-2.336-1.646-5.188-3.67-6.357l-2.703-1.559c-0.253-0.147-0.34-0.47-0.194-0.722
			c0.146-0.253,0.467-0.342,0.722-0.194l2.704,1.561c2.355,1.36,4.198,4.554,4.198,7.271v3.122c0,2.337,1.647,5.188,3.669,6.354
			l12.948,7.475c0.252,0.147,0.339,0.47,0.193,0.723C421.474,339.812,421.296,339.907,421.113,339.907z"/>
	</g>
	<g>
		<path style="fill:#42E8E0;" d="M275.116,395.045c-0.183,0-0.36-0.095-0.458-0.265c-0.146-0.252-0.06-0.575,0.193-0.722
			l12.948-7.475c2.023-1.168,3.669-4.02,3.669-6.354v-3.123c0-2.718,1.844-5.911,4.197-7.271l2.705-1.561
			c0.251-0.145,0.577-0.059,0.722,0.193c0.146,0.253,0.06,0.576-0.193,0.723l-2.705,1.561c-2.023,1.167-3.669,4.018-3.669,6.354
			v3.123c0,2.717-1.844,5.91-4.198,7.27l-12.948,7.476C275.297,395.022,275.206,395.045,275.116,395.045z"/>
		<path style="fill:#42E8E0;" d="M270.081,392.143c-0.183,0-0.36-0.095-0.458-0.264c-0.146-0.253-0.06-0.576,0.193-0.723
			l12.947-7.476c2.023-1.167,3.669-4.019,3.669-6.354v-3.123c0-2.718,1.844-5.911,4.198-7.27l2.704-1.562
			c0.251-0.145,0.576-0.059,0.722,0.193c0.146,0.253,0.06,0.576-0.193,0.723l-2.704,1.562c-2.023,1.167-3.669,4.019-3.669,6.354
			v3.123c0,2.718-1.844,5.911-4.198,7.271l-12.947,7.476C270.261,392.121,270.17,392.143,270.081,392.143z"/>
		<path style="fill:#42E8E0;" d="M265.044,389.241c-0.183,0-0.36-0.095-0.458-0.264c-0.146-0.253-0.06-0.576,0.193-0.723
			l12.948-7.476c2.023-1.167,3.669-4.019,3.669-6.355v-3.122c0-2.718,1.844-5.911,4.198-7.271l2.704-1.562
			c0.252-0.146,0.576-0.059,0.722,0.194c0.146,0.252,0.059,0.575-0.193,0.722l-2.704,1.561c-2.023,1.168-3.669,4.02-3.669,6.355
			v3.122c0,2.718-1.844,5.911-4.197,7.271l-12.948,7.475C265.225,389.219,265.134,389.241,265.044,389.241z"/>
		<path style="fill:#42E8E0;" d="M260.008,386.34c-0.183,0-0.36-0.095-0.458-0.264c-0.146-0.253-0.06-0.576,0.193-0.723
			l12.948-7.476c2.023-1.167,3.669-4.019,3.669-6.355V368.4c0-2.718,1.844-5.911,4.197-7.271l2.705-1.561
			c0.252-0.146,0.576-0.059,0.722,0.193c0.146,0.253,0.059,0.576-0.193,0.723l-2.705,1.561c-2.023,1.167-3.669,4.019-3.669,6.355
			v3.123c0,2.718-1.844,5.911-4.198,7.271l-12.948,7.476C260.189,386.317,260.098,386.34,260.008,386.34z"/>
		<path style="fill:#42E8E0;" d="M254.973,383.437c-0.183,0-0.36-0.095-0.458-0.264c-0.146-0.253-0.06-0.576,0.193-0.723
			l12.947-7.476c2.023-1.167,3.669-4.018,3.669-6.354v-3.123c0-2.717,1.844-5.91,4.198-7.27l2.704-1.563
			c0.252-0.146,0.576-0.059,0.722,0.193c0.146,0.253,0.06,0.576-0.193,0.723l-2.704,1.561c-2.023,1.168-3.669,4.02-3.669,6.354
			v3.123c0,2.718-1.844,5.911-4.198,7.27l-12.947,7.476C255.153,383.415,255.063,383.437,254.973,383.437z"/>
		<path style="fill:#42E8E0;" d="M249.936,380.535c-0.183,0-0.36-0.095-0.458-0.265c-0.146-0.252-0.06-0.575,0.193-0.722
			l12.948-7.475c2.023-1.168,3.669-4.02,3.669-6.355v-3.122c0-2.718,1.844-5.911,4.198-7.271l2.704-1.561
			c0.251-0.145,0.576-0.059,0.722,0.193c0.146,0.253,0.06,0.576-0.193,0.723l-2.704,1.561c-2.023,1.167-3.669,4.019-3.669,6.354
			v3.122c0,2.718-1.844,5.911-4.197,7.271l-12.948,7.476C250.117,380.513,250.026,380.535,249.936,380.535z"/>
		<path style="fill:#42E8E0;" d="M244.9,377.634c-0.183,0-0.36-0.095-0.458-0.264c-0.146-0.253-0.06-0.576,0.193-0.723l12.948-7.476
			c2.023-1.167,3.669-4.018,3.669-6.354v-3.123c0-2.718,1.844-5.911,4.197-7.271l2.705-1.562c0.252-0.145,0.576-0.059,0.722,0.193
			c0.146,0.253,0.06,0.576-0.193,0.723l-2.705,1.561c-2.023,1.167-3.669,4.018-3.669,6.355v3.123c0,2.718-1.844,5.911-4.198,7.271
			l-12.948,7.476C245.081,377.611,244.99,377.634,244.9,377.634z"/>
		<path style="fill:#42E8E0;" d="M239.865,374.731c-0.183,0-0.36-0.095-0.458-0.264c-0.146-0.253-0.059-0.576,0.193-0.723
			l12.947-7.476c2.023-1.167,3.669-4.019,3.669-6.355v-3.122c0-2.718,1.844-5.911,4.198-7.27l2.704-1.563
			c0.252-0.145,0.576-0.059,0.722,0.193c0.146,0.253,0.06,0.576-0.193,0.723l-2.704,1.561c-2.023,1.168-3.669,4.02-3.669,6.355
			v3.122c0,2.718-1.844,5.911-4.198,7.271l-12.947,7.476C240.045,374.709,239.955,374.731,239.865,374.731z"/>
		<path style="fill:#42E8E0;" d="M234.829,371.829c-0.183,0-0.36-0.095-0.458-0.265c-0.146-0.252-0.06-0.575,0.193-0.722
			l12.948-7.475c2.023-1.168,3.669-4.02,3.669-6.355v-3.122c0-2.718,1.844-5.911,4.198-7.271l2.704-1.562
			c0.252-0.146,0.576-0.059,0.722,0.193c0.146,0.253,0.06,0.576-0.193,0.723l-2.704,1.562c-2.023,1.167-3.669,4.018-3.669,6.354
			v3.122c0,2.718-1.844,5.911-4.197,7.27l-12.948,7.476C235.009,371.806,234.919,371.829,234.829,371.829z"/>
		<path style="fill:#42E8E0;" d="M229.792,368.928c-0.183,0-0.36-0.095-0.458-0.264c-0.146-0.253-0.06-0.576,0.193-0.723
			l12.948-7.475c2.023-1.167,3.669-4.019,3.669-6.354v-3.123c0-2.718,1.844-5.911,4.197-7.271l2.705-1.561
			c0.252-0.146,0.576-0.059,0.722,0.193c0.146,0.253,0.059,0.576-0.193,0.723l-2.705,1.561c-2.023,1.167-3.669,4.019-3.669,6.354
			v3.123c0,2.718-1.844,5.911-4.198,7.271l-12.948,7.476C229.973,368.905,229.882,368.928,229.792,368.928z"/>
		<path style="fill:#42E8E0;" d="M224.757,366.025c-0.183,0-0.36-0.095-0.458-0.264c-0.146-0.253-0.059-0.576,0.193-0.723
			l12.947-7.476c2.023-1.167,3.669-4.018,3.669-6.354v-3.122c0-2.718,1.844-5.911,4.198-7.271l2.704-1.561
			c0.253-0.147,0.576-0.059,0.722,0.194c0.146,0.252,0.059,0.575-0.193,0.722l-2.704,1.561c-2.024,1.168-3.67,4.02-3.67,6.355v3.122
			c0,2.718-1.844,5.911-4.198,7.271l-12.947,7.476C224.938,366.003,224.847,366.025,224.757,366.025z"/>
		<path style="fill:#42E8E0;" d="M219.721,363.123c-0.183,0-0.36-0.095-0.458-0.265c-0.146-0.252-0.06-0.575,0.193-0.722
			l12.948-7.475c2.023-1.168,3.669-4.02,3.669-6.355v-3.122c0-2.718,1.844-5.911,4.198-7.27l2.704-1.562
			c0.252-0.145,0.576-0.06,0.722,0.193c0.146,0.253,0.06,0.576-0.193,0.723l-2.704,1.561c-2.023,1.167-3.669,4.019-3.669,6.354
			v3.122c0,2.718-1.844,5.911-4.197,7.271l-12.948,7.476C219.901,363.1,219.811,363.123,219.721,363.123z"/>
		<path style="fill:#42E8E0;" d="M214.685,360.221c-0.183,0-0.36-0.095-0.458-0.264c-0.146-0.253-0.06-0.576,0.193-0.723
			l12.948-7.476c2.023-1.167,3.669-4.019,3.669-6.355v-3.123c0-2.718,1.844-5.911,4.197-7.271l2.704-1.562
			c0.252-0.145,0.576-0.06,0.722,0.193c0.146,0.253,0.059,0.576-0.193,0.723l-2.704,1.562c-2.023,1.167-3.669,4.018-3.669,6.354
			v3.123c0,2.718-1.844,5.911-4.198,7.271l-12.948,7.476C214.865,360.199,214.774,360.221,214.685,360.221z"/>
		<path style="fill:#42E8E0;" d="M209.649,357.319c-0.183,0-0.36-0.095-0.458-0.264c-0.146-0.253-0.06-0.576,0.193-0.723
			l12.947-7.475c2.023-1.167,3.67-4.019,3.67-6.354v-3.122c0-2.718,1.844-5.911,4.198-7.271l2.704-1.561
			c0.252-0.147,0.576-0.059,0.722,0.194c0.146,0.252,0.059,0.575-0.193,0.722l-2.704,1.561c-2.023,1.168-3.669,4.02-3.669,6.355
			v3.122c0,2.718-1.844,5.911-4.198,7.27l-12.947,7.476C209.83,357.297,209.739,357.319,209.649,357.319z"/>
		<path style="fill:#42E8E0;" d="M204.613,354.417c-0.183,0-0.36-0.095-0.458-0.265c-0.146-0.252-0.06-0.575,0.193-0.722
			l12.947-7.475c2.023-1.168,3.669-4.02,3.669-6.355v-3.122c0-2.718,1.844-5.911,4.198-7.271l2.704-1.561
			c0.251-0.146,0.576-0.059,0.722,0.193c0.146,0.253,0.06,0.576-0.193,0.723l-2.704,1.562c-2.023,1.167-3.669,4.018-3.669,6.354
			v3.122c0,2.718-1.844,5.911-4.198,7.271l-12.947,7.476C204.794,354.394,204.703,354.417,204.613,354.417z"/>
		<path style="fill:#42E8E0;" d="M199.577,351.516c-0.183,0-0.36-0.095-0.458-0.264c-0.146-0.253-0.06-0.576,0.193-0.723
			l12.948-7.476c2.023-1.167,3.669-4.019,3.669-6.354v-3.123c0-2.718,1.844-5.911,4.198-7.27l2.704-1.562
			c0.251-0.145,0.576-0.059,0.722,0.193c0.146,0.253,0.06,0.576-0.193,0.723l-2.704,1.561c-2.023,1.167-3.669,4.019-3.669,6.354
			v3.123c0,2.718-1.844,5.911-4.197,7.271l-12.948,7.476C199.757,351.493,199.667,351.516,199.577,351.516z"/>
		<path style="fill:#42E8E0;" d="M194.54,348.613c-0.183,0-0.36-0.095-0.458-0.264c-0.146-0.253-0.06-0.576,0.193-0.723
			l12.948-7.476c2.023-1.167,3.669-4.019,3.669-6.355v-3.122c0-2.718,1.844-5.911,4.197-7.27l2.705-1.562
			c0.253-0.146,0.576-0.059,0.722,0.194c0.146,0.252,0.059,0.575-0.193,0.722l-2.704,1.561c-2.023,1.168-3.669,4.02-3.669,6.355
			v3.122c0,2.718-1.844,5.911-4.198,7.271l-12.948,7.476C194.721,348.591,194.63,348.613,194.54,348.613z"/>
		<path style="fill:#42E8E0;" d="M189.505,345.711c-0.183,0-0.36-0.095-0.458-0.265c-0.146-0.252-0.06-0.575,0.193-0.722
			l12.947-7.475c2.023-1.168,3.669-4.02,3.669-6.355v-3.122c0-2.718,1.844-5.911,4.198-7.271l2.704-1.561
			c0.251-0.146,0.576-0.059,0.722,0.193c0.146,0.253,0.059,0.576-0.193,0.723l-2.704,1.561c-2.023,1.167-3.669,4.019-3.669,6.355
			v3.122c0,2.718-1.844,5.911-4.198,7.27l-12.947,7.476C189.686,345.688,189.595,345.711,189.505,345.711z"/>
		<path style="fill:#42E8E0;" d="M184.469,342.809c-0.183,0-0.36-0.095-0.458-0.264c-0.146-0.253-0.059-0.576,0.193-0.723
			l12.948-7.476c2.023-1.167,3.669-4.019,3.669-6.354v-3.123c0-2.718,1.844-5.911,4.198-7.271l2.704-1.562
			c0.251-0.146,0.577-0.059,0.722,0.193c0.146,0.253,0.06,0.576-0.193,0.723l-2.704,1.562c-2.023,1.167-3.669,4.018-3.669,6.354
			v3.123c0,2.718-1.844,5.911-4.197,7.27l-12.948,7.476C184.649,342.787,184.559,342.809,184.469,342.809z"/>
		<path style="fill:#42E8E0;" d="M179.433,339.907c-0.183,0-0.36-0.095-0.458-0.264c-0.146-0.253-0.06-0.576,0.193-0.723
			l12.948-7.475c2.023-1.167,3.67-4.019,3.67-6.354v-3.122c0-2.718,1.844-5.911,4.197-7.271l2.705-1.561
			c0.253-0.146,0.576-0.059,0.722,0.194c0.146,0.252,0.059,0.575-0.193,0.722l-2.705,1.56c-2.023,1.168-3.669,4.02-3.669,6.355
			v3.122c0,2.718-1.844,5.911-4.198,7.271l-12.948,7.476C179.613,339.885,179.522,339.907,179.433,339.907z"/>
	</g>
</g>
<g style="opacity:0.3;">
	<path style="fill:#42E8E0;" d="M393.999,153.549c0.893,5.05,4.639,17.744,20.095,26.525c22.001,10.16,37.242,23.516,42.348,38.428
		c0.361,0.978,0.86,2.28,1.328,3.212c0.548-0.904,0.548-0.904,0.551-3.09v-25.037c-0.01-14.701-0.835-17.942-1.879-22.045
		c-5.106-14.912-20.346-28.268-42.348-38.428C396.542,127.448,392.293,143.904,393.999,153.549L393.999,153.549z"/>
	<path style="fill:#42E8E0;" d="M232.661,123.508c23.294-6.757,50.85-10.562,80.262-10.321c3.881,0.032,7.724,0.133,11.525,0.302
		c25.826,2.359,35.011,29.633,19.441,41.566c-7.147,5.477-15.762,5.419-19.441,5.395c-3.801-0.169-7.644-0.271-11.525-0.302
		c-29.411-0.241-56.968,3.563-80.262,10.321c-23.52,5.729-24.909-18.172-16.684-32.793
		C218.743,132.759,223.884,126.309,232.661,123.508L232.661,123.508z"/>
	<path style="fill:#42E8E0;" d="M162.359,229.634c0.641-7.443,1.148-13.323,8.726-23.583c15.976-23.574,12.75-50.972,3.925-49.706
		c-1.422,0.204-2.901,1.737-3.925,2.746c-5.363,6.989-8.411,14.505-8.703,22.347c-0.015,0.413-0.023,0.825-0.023,1.237V229.634
		L162.359,229.634z"/>
</g>
<g>
	
		<rect x="357.75" y="234.734" transform="matrix(0.927 -0.3752 0.3752 0.927 -70.5185 154.0987)" style="fill:#42E8E0;" width="5.487" height="46.839"/>
	<g>
		<g>
			<g>
				
					<radialGradient id="SVGID_00000181058224253986505860000016598344237754562180_" cx="-87.5502" cy="-172.8302" r="98.4089" gradientTransform="matrix(0.981 0.1942 -0.1942 0.981 391.4709 347.2711)" gradientUnits="userSpaceOnUse">
					<stop  offset="0" style="stop-color:#C0BFF6"/>
					<stop  offset="1" style="stop-color:#393091"/>
				</radialGradient>
				<circle style="fill:url(#SVGID_00000181058224253986505860000016598344237754562180_);" cx="257.605" cy="215.19" r="17.049"/>
			</g>
		</g>
		<g>
			<g>
				
					<radialGradient id="SVGID_00000101071287399755021250000007454860651995992470_" cx="912.2921" cy="334.7897" r="97.2202" gradientTransform="matrix(0.7781 0 0 1.0592 -382.2604 -123.1801)" gradientUnits="userSpaceOnUse">
					<stop  offset="0" style="stop-color:#C0BFF6"/>
					<stop  offset="1" style="stop-color:#393091"/>
				</radialGradient>
				<path style="fill:url(#SVGID_00000101071287399755021250000007454860651995992470_);" d="M345.64,240.409
					c0,33.094-19.707,59.922-44.018,59.922s-44.018-26.828-44.018-59.922s19.707-43.011,44.018-43.011
					S345.64,207.315,345.64,240.409z"/>
			</g>
		</g>
		<g>
			<g>
				
					<linearGradient id="SVGID_00000144298429026020521700000004797703408825638545_" gradientUnits="userSpaceOnUse" x1="878.9139" y1="399.8403" x2="878.9139" y2="302.6604" gradientTransform="matrix(0.7781 0 0 1.0592 -382.2604 -123.1801)">
					<stop  offset="0" style="stop-color:#42E8E0"/>
					<stop  offset="0.0047" style="stop-color:#42E6DF"/>
					<stop  offset="0.1358" style="stop-color:#40B6CB"/>
					<stop  offset="0.2707" style="stop-color:#3E8DB9"/>
					<stop  offset="0.4074" style="stop-color:#3C6BAA"/>
					<stop  offset="0.5467" style="stop-color:#3B519F"/>
					<stop  offset="0.6893" style="stop-color:#3A3F97"/>
					<stop  offset="0.8375" style="stop-color:#393493"/>
					<stop  offset="1" style="stop-color:#393091"/>
				</linearGradient>
				<path style="fill:url(#SVGID_00000144298429026020521700000004797703408825638545_);" d="M345.64,240.409
					c0,33.094-19.707,59.922-44.018,59.922s-44.018-26.828-44.018-59.922s19.707-43.011,44.018-43.011
					S345.64,207.315,345.64,240.409z"/>
			</g>
		</g>
		<ellipse style="fill:#393091;" cx="301.622" cy="215.19" rx="30.041" ry="17.344"/>
		<path style="fill:#453C9E;" d="M280.38,207.546c11.732-6.773,30.753-6.773,42.485,0c4.846,2.798,7.684,6.314,8.527,9.955
			c1.198-5.174-1.641-10.599-8.527-14.575c-11.732-6.773-30.753-6.774-42.485,0c-6.886,3.975-9.724,9.401-8.527,14.574
			C272.696,213.86,275.534,210.344,280.38,207.546z"/>
		
			<radialGradient id="SVGID_00000141440908514450216400000016078526620181350068_" cx="257.3022" cy="104.106" r="53.2713" gradientUnits="userSpaceOnUse">
			<stop  offset="0" style="stop-color:#C0BFF6"/>
			<stop  offset="1" style="stop-color:#393091"/>
		</radialGradient>
		<path style="fill:url(#SVGID_00000141440908514450216400000016078526620181350068_);" d="M266.946,173.975l5.435-9.364
			c3.197-3.316,5.752-7.72,7.049-12.146l5.504-9.483l-7.916-4.544c-0.253-0.172-0.518-0.325-0.794-0.456l-0.005-0.003v0
			c-2.251-1.066-5.242-0.78-8.525,1.115c-6.998,4.04-12.671,13.866-12.671,21.946c0,4.038,1.417,6.876,3.707,8.2v0l0.004,0.002
			c0,0,0,0,0,0L266.946,173.975z"/>
		
			<ellipse transform="matrix(0.5 -0.866 0.866 0.5 0.721 318.0941)" style="fill:#BCBEFF;" cx="275.846" cy="158.423" rx="17.919" ry="10.346"/>
		<g>
			<g>
				
					<radialGradient id="SVGID_00000005963943618758508570000013019883538854906250_" cx="331.3854" cy="167.1411" r="75.879" gradientUnits="userSpaceOnUse">
					<stop  offset="0" style="stop-color:#C0BFF6"/>
					<stop  offset="1" style="stop-color:#393091"/>
				</radialGradient>
				<circle style="fill:url(#SVGID_00000005963943618758508570000013019883538854906250_);" cx="303.368" cy="173.792" r="44.894"/>
			</g>
		</g>
		<g>
			<g>
				
					<linearGradient id="SVGID_00000088132374089785119340000011879027270193630338_" gradientUnits="userSpaceOnUse" x1="297.1196" y1="218.2545" x2="309.6172" y2="129.3296">
					<stop  offset="0" style="stop-color:#42E8E0"/>
					<stop  offset="0.0047" style="stop-color:#42E6DF"/>
					<stop  offset="0.1358" style="stop-color:#40B6CB"/>
					<stop  offset="0.2707" style="stop-color:#3E8DB9"/>
					<stop  offset="0.4074" style="stop-color:#3C6BAA"/>
					<stop  offset="0.5467" style="stop-color:#3B519F"/>
					<stop  offset="0.6893" style="stop-color:#3A3F97"/>
					<stop  offset="0.8375" style="stop-color:#393493"/>
					<stop  offset="1" style="stop-color:#393091"/>
				</linearGradient>
				<circle style="fill:url(#SVGID_00000088132374089785119340000011879027270193630338_);" cx="303.368" cy="173.792" r="44.894"/>
			</g>
		</g>
		
			<radialGradient id="SVGID_00000049908015098390182560000015956382736439576225_" cx="330.778" cy="166.3339" r="36.0354" gradientUnits="userSpaceOnUse">
			<stop  offset="0" style="stop-color:#C0BFF6"/>
			<stop  offset="1" style="stop-color:#393091"/>
		</radialGradient>
		<path style="fill:url(#SVGID_00000049908015098390182560000015956382736439576225_);" d="M328.492,204.153l5.435-9.364
			c3.197-3.316,5.752-7.72,7.049-12.146l5.504-9.483l-7.915-4.545c-0.253-0.172-0.518-0.325-0.794-0.456l-0.004-0.003l0,0
			c-2.251-1.066-5.242-0.78-8.525,1.115c-6.998,4.04-12.671,13.866-12.671,21.946c0,4.038,1.417,6.876,3.707,8.2l0,0l0.004,0.002
			c0,0,0,0,0,0L328.492,204.153z"/>
		
			<ellipse transform="matrix(0.5 -0.866 0.866 0.5 5.3574 386.4821)" style="fill:#BCBEFF;" cx="337.392" cy="188.601" rx="17.919" ry="10.346"/>
		<path style="fill:#FFFFFF;" d="M325.303,196.021c0-8.08,5.673-17.906,12.671-21.946c2.425-1.4,4.69-1.92,6.615-1.668
			c-2.044-0.452-4.523,0.02-7.197,1.564c-6.998,4.04-12.671,13.866-12.671,21.946c0,5.281,2.423,8.507,6.056,8.983
			C327.47,204.168,325.303,201.014,325.303,196.021z"/>
		
			<ellipse transform="matrix(0.5 -0.866 0.866 0.5 5.3568 386.4812)" style="fill:#393091;" cx="337.392" cy="188.601" rx="12.808" ry="7.395"/>
		<path style="fill:#453C9E;" d="M342.595,177.04c0.937,1.106,1.484,2.76,1.484,4.878c0,5.776-4.055,12.799-9.057,15.687
			c-1.937,1.118-3.731,1.45-5.203,1.104c1.619,1.91,4.405,2.18,7.573,0.351c5.002-2.888,9.057-9.911,9.057-15.687
			C346.449,179.833,344.925,177.587,342.595,177.04z"/>
		<g>
			
				<ellipse transform="matrix(0.9232 -0.3843 0.3843 0.9232 -49.9594 120.5052)" style="fill:#393091;" cx="276.556" cy="185.264" rx="11.399" ry="19.743"/>
			<path style="fill:#42E8E0;" d="M283.522,187.412c-0.417,3.208-2.838,4.216-5.409,2.251c-2.57-1.965-4.316-6.16-3.899-9.368
				c0.417-3.208,2.838-4.216,5.409-2.251C282.193,180.009,283.939,184.203,283.522,187.412z"/>
			<path style="fill:#453C9E;" d="M277.876,199.963c-7.072-5.408-11.876-16.948-10.729-25.777c0.468-3.599,1.852-6.191,3.807-7.633
				c-3.697,0.348-6.497,3.484-7.203,8.92c-1.147,8.829,3.657,20.369,10.729,25.777c4.189,3.203,8.234,3.535,11.075,1.439
				C283.248,202.906,280.593,202.041,277.876,199.963z"/>
			<path style="fill:#42E8E0;" d="M275.089,200.962c-7.073-5.408-11.876-16.948-10.729-25.777c0.531-4.087,2.245-6.873,4.634-8.152
				c-2.705,1.113-4.668,4.014-5.243,8.44c-1.147,8.829,3.657,20.369,10.729,25.777c3.797,2.903,7.473,3.44,10.243,1.957
				C282.034,204.313,278.614,203.658,275.089,200.962z"/>
		</g>
		<g>
			<g>
				
					<radialGradient id="SVGID_00000055698861528191709610000016535062539822281656_" cx="-52.7782" cy="-113.867" r="35.5672" gradientTransform="matrix(0.981 0.1942 -0.1942 0.981 391.4709 347.2711)" gradientUnits="userSpaceOnUse">
					<stop  offset="0" style="stop-color:#C0BFF6"/>
					<stop  offset="1" style="stop-color:#393091"/>
				</radialGradient>
				<circle style="fill:url(#SVGID_00000055698861528191709610000016535062539822281656_);" cx="351.707" cy="236.445" r="17.049"/>
			</g>
		</g>
		<g>
			<g>
				
					<linearGradient id="SVGID_00000021110287506036727910000003093796968081690509_" gradientUnits="userSpaceOnUse" x1="-72.1098" y1="-88.4826" x2="-48.9433" y2="-113.4995" gradientTransform="matrix(0.981 0.1942 -0.1942 0.981 391.4709 347.2711)">
					<stop  offset="0" style="stop-color:#42E8E0"/>
					<stop  offset="0.0047" style="stop-color:#42E6DF"/>
					<stop  offset="0.1358" style="stop-color:#40B6CB"/>
					<stop  offset="0.2707" style="stop-color:#3E8DB9"/>
					<stop  offset="0.4074" style="stop-color:#3C6BAA"/>
					<stop  offset="0.5467" style="stop-color:#3B519F"/>
					<stop  offset="0.6893" style="stop-color:#3A3F97"/>
					<stop  offset="0.8375" style="stop-color:#393493"/>
					<stop  offset="1" style="stop-color:#393091"/>
				</linearGradient>
				<circle style="fill:url(#SVGID_00000021110287506036727910000003093796968081690509_);" cx="351.707" cy="236.445" r="17.049"/>
			</g>
		</g>
	</g>
	
		<radialGradient id="SVGID_00000074423768893039402010000004305792468365067950_" cx="309.0921" cy="-1700.7673" r="32.9505" fx="309.1418" fy="-1698.6234" gradientTransform="matrix(0.9112 0.1087 -0.1791 1.501 -202.9199 2798.709)" gradientUnits="userSpaceOnUse">
		<stop  offset="0" style="stop-color:#C0BFF6"/>
		<stop  offset="1" style="stop-color:#393091"/>
	</radialGradient>
	<path style="fill:url(#SVGID_00000074423768893039402010000004305792468365067950_);" d="M378.897,292.931
		c-0.967,8.101-8.121,23.445-14.597,22.672c-6.475-0.773-9.819-17.369-8.852-25.47c0.967-8.101,7-14.042,13.475-13.269
		C375.398,277.636,379.864,284.829,378.897,292.931z"/>
	
		<linearGradient id="SVGID_00000074420158346159412520000006993783638913805488_" gradientUnits="userSpaceOnUse" x1="219.0021" y1="364.2697" x2="244.7367" y2="364.2697" gradientTransform="matrix(0.9112 0.1087 -0.136 1.1399 204.8732 -144.2021)">
		<stop  offset="0" style="stop-color:#42E8E0"/>
		<stop  offset="0.0047" style="stop-color:#42E6DF"/>
		<stop  offset="0.1358" style="stop-color:#40B6CB"/>
		<stop  offset="0.2707" style="stop-color:#3E8DB9"/>
		<stop  offset="0.4074" style="stop-color:#3C6BAA"/>
		<stop  offset="0.5467" style="stop-color:#3B519F"/>
		<stop  offset="0.6893" style="stop-color:#3A3F97"/>
		<stop  offset="0.8375" style="stop-color:#393493"/>
		<stop  offset="1" style="stop-color:#393091"/>
	</linearGradient>
	<path style="fill:url(#SVGID_00000074420158346159412520000006993783638913805488_);" d="M378.897,292.931
		c-0.967,8.101-8.121,23.445-14.597,22.672c-6.475-0.773-9.819-17.369-8.852-25.47c0.967-8.101,7-14.042,13.475-13.269
		C375.398,277.636,379.864,284.829,378.897,292.931z"/>
	<path style="fill:#42E8E0;" d="M212.492,240.809c-0.988,0-1.943-0.536-2.433-1.472c-0.703-1.343-0.184-3.001,1.159-3.703
		l35.201-18.421c1.343-0.704,3-0.184,3.703,1.158c0.703,1.343,0.184,3.001-1.159,3.703l-35.201,18.421
		C213.355,240.709,212.921,240.809,212.492,240.809z"/>
	
		<radialGradient id="SVGID_00000088129292136640150700000004041841036546185129_" cx="-2238.8237" cy="-2254.4065" r="32.9505" fx="-2238.7742" fy="-2252.2625" gradientTransform="matrix(0.4411 0.8047 -1.3256 0.7266 -1766.7273 3670.4304)" gradientUnits="userSpaceOnUse">
		<stop  offset="0" style="stop-color:#C0BFF6"/>
		<stop  offset="1" style="stop-color:#393091"/>
	</radialGradient>
	<path style="fill:url(#SVGID_00000088129292136640150700000004041841036546185129_);" d="M213.112,251.035
		c-7.154,3.922-23.799,7.017-26.934,1.298c-3.135-5.718,8.428-18.085,15.582-22.007c7.154-3.922,15.495-2.465,18.63,3.253
		C223.525,239.298,220.266,247.113,213.112,251.035z"/>
	
		<linearGradient id="SVGID_00000095299389501907282350000012092751620421231279_" gradientUnits="userSpaceOnUse" x1="-2685.1921" y1="-155.6409" x2="-2700.6169" y2="-135.0406" gradientTransform="matrix(0.4411 0.8047 -1.0067 0.5518 1247.8903 2489.1328)">
		<stop  offset="0" style="stop-color:#42E8E0"/>
		<stop  offset="0.0047" style="stop-color:#42E6DF"/>
		<stop  offset="0.1358" style="stop-color:#40B6CB"/>
		<stop  offset="0.2707" style="stop-color:#3E8DB9"/>
		<stop  offset="0.4074" style="stop-color:#3C6BAA"/>
		<stop  offset="0.5467" style="stop-color:#3B519F"/>
		<stop  offset="0.6893" style="stop-color:#3A3F97"/>
		<stop  offset="0.8375" style="stop-color:#393493"/>
		<stop  offset="1" style="stop-color:#393091"/>
	</linearGradient>
	<path style="fill:url(#SVGID_00000095299389501907282350000012092751620421231279_);" d="M213.112,251.035
		c-7.154,3.922-23.799,7.017-26.934,1.298c-3.135-5.718,8.428-18.085,15.582-22.007c7.154-3.922,15.495-2.465,18.63,3.253
		C223.525,239.298,220.266,247.113,213.112,251.035z"/>
</g>
<g style="opacity:0.5;">
	<g>
		<path style="fill:#42E8E0;" d="M179.562,243.4c-1.072,8.62-5.542,13.75-10.242,7.328c-6.025-8.234-6.611-16.284-6.961-21.094
			v-46.96c0,7.347,2.438,14.435,6.961,21.094C179.253,220.197,180.431,236.41,179.562,243.4L179.562,243.4z"/>
		<path style="fill:#42E8E0;" d="M318.979,252.007c-3.707,0.1-7.449,0.136-11.222,0.105c-29.526-0.242-56.88-4.527-79.711-11.713
			c-22.805-6.092-24.183,17.77-16.224,32.509c5.667,10.495,13.337,13.369,16.224,14.452c22.831,7.185,50.185,11.471,79.711,11.713
			c3.773,0.031,7.515-0.005,11.222-0.105c26.796-1.975,33.813-27.71,21.29-39.722C336.774,255.893,330.243,251.916,318.979,252.007
			L318.979,252.007z"/>
		<path style="fill:#42E8E0;" d="M458.298,214.565c-0.13,20.307-1.322,24.004-2.831,28.684c-6.276,14.808-22.554,27.89-45.34,37.662
			c-19.948,5.885-25.457-14.843-17.345-30.211c5.52-10.456,14.11-15.028,17.345-16.749c22.785-9.772,39.063-22.854,45.34-37.662
			c0.46-0.983,1.109-2.286,1.724-3.18c0.153-0.02,0.357-0.047,0.51-0.067c0.386,1.085,0.546,1.535,0.597,7.078V214.565
			L458.298,214.565z"/>
	</g>
</g>
<linearGradient id="SVGID_00000095306732425262926500000010800098060600686220_" gradientUnits="userSpaceOnUse" x1="303.5299" y1="365.0607" x2="303.5299" y2="83.7171">
	<stop  offset="0" style="stop-color:#42E8E0"/>
	<stop  offset="0.1205" style="stop-color:#39BDC0"/>
	<stop  offset="0.2841" style="stop-color:#2F899A"/>
	<stop  offset="0.4453" style="stop-color:#265F7B"/>
	<stop  offset="0.6004" style="stop-color:#1F3D62"/>
	<stop  offset="0.7478" style="stop-color:#1A2550"/>
	<stop  offset="0.8845" style="stop-color:#171746"/>
	<stop  offset="1" style="stop-color:#161242"/>
</linearGradient>
<polygon style="opacity:0.5;fill:url(#SVGID_00000095306732425262926500000010800098060600686220_);" points="415.035,300.684 
	415.035,83.717 192.025,83.717 192.025,300.682 303.532,365.061 "/>
<linearGradient id="SVGID_00000008125755089270527540000012547678496634370479_" gradientUnits="userSpaceOnUse" x1="378.6538" y1="229.6574" x2="378.6538" y2="87.1879">
	<stop  offset="0" style="stop-color:#161242"/>
	<stop  offset="0.1155" style="stop-color:#171746"/>
	<stop  offset="0.2522" style="stop-color:#1A2550"/>
	<stop  offset="0.3996" style="stop-color:#1F3D62"/>
	<stop  offset="0.5547" style="stop-color:#265F7B"/>
	<stop  offset="0.7159" style="stop-color:#2F899A"/>
	<stop  offset="0.8795" style="stop-color:#39BDC0"/>
	<stop  offset="1" style="stop-color:#42E8E0"/>
</linearGradient>
<path style="opacity:0.8;fill:url(#SVGID_00000008125755089270527540000012547678496634370479_);" d="M378.654,229.657
	L378.654,229.657c-2.173,0-3.935-1.762-3.935-3.935V91.123c0-2.173,1.762-3.935,3.935-3.935l0,0c2.173,0,3.935,1.762,3.935,3.935
	v134.599C382.589,227.895,380.827,229.657,378.654,229.657z"/>
<linearGradient id="SVGID_00000070076534408290780540000002694923640134110112_" gradientUnits="userSpaceOnUse" x1="223.4325" y1="172.2429" x2="223.4325" y2="47.7358">
	<stop  offset="0" style="stop-color:#161242"/>
	<stop  offset="0.1155" style="stop-color:#171746"/>
	<stop  offset="0.2522" style="stop-color:#1A2550"/>
	<stop  offset="0.3996" style="stop-color:#1F3D62"/>
	<stop  offset="0.5547" style="stop-color:#265F7B"/>
	<stop  offset="0.7159" style="stop-color:#2F899A"/>
	<stop  offset="0.8795" style="stop-color:#39BDC0"/>
	<stop  offset="1" style="stop-color:#42E8E0"/>
</linearGradient>
<path style="opacity:0.8;fill:url(#SVGID_00000070076534408290780540000002694923640134110112_);" d="M223.432,172.243
	L223.432,172.243c-1.165,0-2.109-0.944-2.109-2.109V49.845c0-1.165,0.944-2.109,2.109-2.109l0,0c1.165,0,2.109,0.944,2.109,2.109
	v120.289C225.542,171.299,224.597,172.243,223.432,172.243z"/>
</svg>
